<svg width="100" height="100" viewBox="0 0 100 100" fill="none" xmlns="http://www.w3.org/2000/svg">
<g clip-path="url(#clip0)">
<path d="M86.8652 90.0391H80.8105V15.1297C80.8093 13.9387 80.3356 12.7968 79.4934 11.9546C78.6513 11.1124 77.5094 10.6387 76.3184 10.6375H51.3676V1.36484C51.367 1.00265 51.2226 0.655502 50.9663 0.399611C50.71 0.14372 50.3626 -5.32204e-07 50.0004 0L27.1488 0C26.7866 -5.32204e-07 26.4392 0.14372 26.1829 0.399611C25.9266 0.655502 25.7823 1.00265 25.7816 1.36484V10.6375H23.6816C22.4907 10.6389 21.3489 11.1127 20.5068 11.9548C19.6646 12.797 19.1909 13.9387 19.1895 15.1297V90.0391H13.1348C12.7722 90.0393 12.4246 90.1834 12.1682 90.4397C11.9119 90.6961 11.7678 91.0437 11.7676 91.4063V98.6305C11.7678 98.993 11.9119 99.3406 12.1682 99.597C12.4246 99.8533 12.7722 99.9975 13.1348 99.9977H86.8652C87.2278 99.9977 87.5756 99.8536 87.832 99.5972C88.0884 99.3408 88.2324 98.9931 88.2324 98.6305V91.4063C88.2324 91.0437 88.0884 90.6959 87.832 90.4395C87.5756 90.1831 87.2278 90.0391 86.8652 90.0391ZM28.516 2.73438H48.6332V10.6375H28.516V2.73438ZM21.9238 15.1297C21.9244 14.6637 22.1098 14.2169 22.4394 13.8874C22.7689 13.5579 23.2156 13.3725 23.6816 13.3719H76.3184C76.7844 13.3723 77.2313 13.5576 77.5609 13.8872C77.8904 14.2167 78.0758 14.6636 78.0762 15.1297V90.0391H60.1566V75.1953H63.5723C63.9349 75.1953 64.2826 75.0513 64.539 74.7949C64.7954 74.5385 64.9395 74.1907 64.9395 73.8281V67.6797C64.9395 67.3171 64.7954 66.9693 64.539 66.7129C64.2826 66.4566 63.9349 66.3125 63.5723 66.3125H36.4262C36.0636 66.3125 35.7158 66.4566 35.4594 66.7129C35.203 66.9693 35.059 67.3171 35.059 67.6797V73.8281C35.059 74.1907 35.203 74.5385 35.4594 74.7949C35.7158 75.0513 36.0636 75.1953 36.4262 75.1953H39.8441V90.0391H21.9238V15.1297ZM37.7934 72.457V69.043H62.2074V72.457H37.7934ZM42.5762 75.1914H57.4223V90.0352H42.5785L42.5762 75.1914ZM85.498 97.2633H14.502V92.7734H85.498V97.2633Z" fill="#18A6E1"/>
<path d="M28.3691 28.7156H44.2387C44.6013 28.7156 44.949 28.5715 45.2054 28.3151C45.4618 28.0587 45.6059 27.711 45.6059 27.3484V19.8171C45.606 19.6376 45.5707 19.4597 45.502 19.2938C45.4333 19.1279 45.3326 18.9771 45.2056 18.8502C45.0787 18.7232 44.9279 18.6225 44.762 18.5538C44.5961 18.4851 44.4182 18.4498 44.2387 18.45H28.3691C28.0065 18.45 27.6588 18.594 27.4024 18.8504C27.146 19.1068 27.002 19.4545 27.002 19.8171V27.3484C27.0022 27.7109 27.1463 28.0586 27.4026 28.3149C27.659 28.5713 28.0066 28.7154 28.3691 28.7156ZM29.7363 21.1843H42.8715V25.9812H29.7363V21.1843Z" fill="#18A6E1"/>
<path d="M28.3691 44.9695H44.2387C44.4182 44.9696 44.5961 44.9343 44.762 44.8656C44.9279 44.7969 45.0787 44.6962 45.2056 44.5693C45.3326 44.4423 45.4333 44.2915 45.502 44.1256C45.5707 43.9597 45.606 43.7819 45.6059 43.6023V36.071C45.6059 35.7084 45.4618 35.3607 45.2054 35.1043C44.949 34.8479 44.6013 34.7039 44.2387 34.7039H28.3691C28.0066 34.7041 27.659 34.8482 27.4026 35.1045C27.1463 35.3609 27.0022 35.7085 27.002 36.071V43.6023C27.002 43.9649 27.146 44.3126 27.4024 44.569C27.6588 44.8254 28.0065 44.9695 28.3691 44.9695ZM29.7363 37.4382H42.8715V42.2351H29.7363V37.4382Z" fill="#18A6E1"/>
<path d="M45.6059 59.8569V52.3257C45.606 52.1461 45.5707 51.9683 45.502 51.8024C45.4333 51.6364 45.3326 51.4857 45.2056 51.3587C45.0787 51.2317 44.9279 51.131 44.762 51.0624C44.5961 50.9937 44.4182 50.9584 44.2387 50.9585H28.3691C28.0065 50.9585 27.6588 51.1025 27.4024 51.3589C27.146 51.6153 27.002 51.9631 27.002 52.3257V59.8569C27.0022 60.2195 27.1463 60.5671 27.4026 60.8235C27.659 61.0798 28.0066 61.2239 28.3691 61.2241H44.2387C44.6013 61.2241 44.949 61.0801 45.2054 60.8237C45.4618 60.5673 45.6059 60.2195 45.6059 59.8569ZM42.8715 58.4898H29.7363V53.6929H42.8715V58.4898Z" fill="#18A6E1"/>
<path d="M55.7617 28.7156H71.6305C71.9931 28.7156 72.3408 28.5715 72.5972 28.3151C72.8536 28.0587 72.9977 27.711 72.9977 27.3484V19.8171C72.9978 19.6376 72.9625 19.4597 72.8938 19.2938C72.8251 19.1279 72.7244 18.9771 72.5974 18.8502C72.4705 18.7232 72.3197 18.6225 72.1538 18.5538C71.9879 18.4851 71.81 18.4498 71.6305 18.45H55.7617C55.5821 18.4498 55.4043 18.4851 55.2384 18.5538C55.0725 18.6225 54.9217 18.7232 54.7947 18.8502C54.6678 18.9771 54.5671 19.1279 54.4984 19.2938C54.4297 19.4597 54.3944 19.6376 54.3945 19.8171V27.3484C54.3945 27.711 54.5386 28.0587 54.795 28.3151C55.0514 28.5715 55.3991 28.7156 55.7617 28.7156ZM57.1289 21.1843H70.2633V25.9812H57.1289V21.1843Z" fill="#18A6E1"/>
<path d="M55.7617 44.9695H71.6305C71.81 44.9696 71.9879 44.9343 72.1538 44.8656C72.3197 44.7969 72.4705 44.6962 72.5974 44.5693C72.7244 44.4423 72.8251 44.2915 72.8938 44.1256C72.9625 43.9597 72.9978 43.7819 72.9977 43.6023V36.071C72.9977 35.7084 72.8536 35.3607 72.5972 35.1043C72.3408 34.8479 71.9931 34.7039 71.6305 34.7039H55.7617C55.3991 34.7039 55.0514 34.8479 54.795 35.1043C54.5386 35.3607 54.3945 35.7084 54.3945 36.071V43.6023C54.3944 43.7819 54.4297 43.9597 54.4984 44.1256C54.5671 44.2915 54.6678 44.4423 54.7947 44.5693C54.9217 44.6962 55.0725 44.7969 55.2384 44.8656C55.4043 44.9343 55.5821 44.9696 55.7617 44.9695ZM57.1289 37.4382H70.2633V42.2351H57.1289V37.4382Z" fill="#18A6E1"/>
<path d="M55.7617 61.2241H71.6305C71.9931 61.2241 72.3408 61.0801 72.5972 60.8237C72.8536 60.5673 72.9977 60.2195 72.9977 59.8569V52.3257C72.9978 52.1461 72.9625 51.9683 72.8938 51.8024C72.8251 51.6364 72.7244 51.4857 72.5974 51.3587C72.4705 51.2317 72.3197 51.131 72.1538 51.0624C71.9879 50.9937 71.81 50.9584 71.6305 50.9585H55.7617C55.5821 50.9584 55.4043 50.9937 55.2384 51.0624C55.0725 51.131 54.9217 51.2317 54.7947 51.3587C54.6678 51.4857 54.5671 51.6364 54.4984 51.8024C54.4297 51.9683 54.3944 52.1461 54.3945 52.3257V59.8569C54.3945 60.2195 54.5386 60.5673 54.795 60.8237C55.0514 61.0801 55.3991 61.2241 55.7617 61.2241ZM57.1289 53.6929H70.2633V58.4898H57.1289V53.6929Z" fill="#18A6E1"/>
</g>
<defs>
<clipPath id="clip0">
<rect width="100" height="100" fill="white"/>
</clipPath>
</defs>
</svg>
