<svg width="100" height="100" viewBox="0 0 100 100" fill="none" xmlns="http://www.w3.org/2000/svg">
<path d="M31.6309 24.5313C31.2676 24.168 30.7637 23.959 30.25 23.959C29.7363 23.959 29.2324 24.168 28.8691 24.5313C28.5061 24.8945 28.2969 25.3984 28.2969 25.9121C28.2969 26.4258 28.5059 26.9297 28.8691 27.293C29.2324 27.6564 29.7363 27.8652 30.25 27.8652C30.7637 27.8652 31.2676 27.6563 31.6309 27.293C31.994 26.9297 32.2031 26.4258 32.2031 25.9121C32.2031 25.3984 31.9941 24.8945 31.6309 24.5313Z" fill="#18A6E1"/>
<path d="M99.4287 8.17417L97.0137 5.7564L99.4279 3.34214C100.191 2.57944 100.191 1.34272 99.4279 0.579834C98.665 -0.182861 97.4287 -0.182861 96.6656 0.579834L94.2527 2.99253L91.8732 0.610107C91.507 0.243701 91.0105 0.0374512 90.4926 0.0372559L57.4352 0.0188965C57.4332 0.0188965 57.4314 0.0188965 57.4297 0.0188965C54.8193 0.0188965 52.3652 1.0353 50.5193 2.8812L34.0232 19.3773C33.2605 20.14 33.2605 21.3767 34.0232 22.1396C34.7861 22.9023 36.0225 22.9023 36.7855 22.1396L53.2816 5.64351C54.3898 4.5353 55.8627 3.92534 57.4297 3.92534C57.4309 3.92534 57.432 3.92534 57.433 3.92534L89.6813 3.94331L91.491 5.75503L84.2441 13.0019C81.1711 11.1613 77.1197 11.5626 74.4744 14.2076C72.9633 15.7189 72.1311 17.7281 72.1311 19.8652C72.1311 22.0023 72.9633 24.0115 74.4744 25.5228C76.0342 27.0826 78.0832 27.8625 80.1322 27.8625C82.1811 27.8625 84.2299 27.0826 85.7898 25.5228C88.4309 22.8816 88.835 18.8382 87.0039 15.7667L94.2518 8.5189L96.0936 10.3628L96.0756 42.5673C96.0746 44.133 95.4645 45.605 94.3572 46.7123L46.6965 94.3726C45.5885 95.4806 44.1152 96.0908 42.5484 96.0908C40.9816 96.0908 39.5084 95.4806 38.4004 94.3726L5.62461 61.5966C4.51641 60.4886 3.90625 59.0154 3.90625 57.4486C3.90625 55.8818 4.51641 54.4086 5.62461 53.3005L26.6781 32.247C27.4408 31.4843 27.4408 30.2476 26.6781 29.4847C25.9152 28.722 24.6789 28.722 23.9158 29.4847L2.8623 50.5382C1.0166 52.3839 0 54.8382 0 57.4486C0 60.0589 1.0166 62.5132 2.8623 64.3589L35.6381 97.1349C37.5434 99.04 40.0457 99.9927 42.5484 99.9927C45.0512 99.9927 47.5535 99.04 49.4588 97.1349L97.1193 49.4742C98.9637 47.6298 99.9801 45.1775 99.9816 42.5691L100 9.55542C100 9.03745 99.7947 8.54058 99.4287 8.17417ZM83.0275 22.7603C82.2541 23.5337 81.2258 23.9597 80.1322 23.9597C79.0383 23.9597 78.0102 23.5337 77.2367 22.7603C75.64 21.1638 75.64 18.566 77.2367 16.9695C78.0352 16.171 79.0834 15.772 80.1322 15.772C80.5272 15.772 80.9219 15.8289 81.3035 15.9421L79.0492 18.1964C78.2865 18.9591 78.2865 20.1959 79.0492 20.9587C79.4307 21.3402 79.9305 21.5308 80.4303 21.5308C80.9301 21.5308 81.4299 21.3402 81.8113 20.9587L84.0594 18.7107C84.4654 20.1011 84.1219 21.666 83.0275 22.7603Z" fill="#18A6E1"/>
<path d="M83.4293 39.3287L60.6678 16.5669C57.6525 13.5517 52.7461 13.5521 49.7312 16.5669L13.7115 52.5869C12.2508 54.0474 11.4463 55.9894 11.4463 58.055C11.4463 60.1207 12.2506 62.0628 13.7113 63.5234L36.473 86.2847C37.9338 87.7455 39.8756 88.55 41.9412 88.55C44.0068 88.55 45.949 87.7457 47.4094 86.2849L83.4293 50.265C84.89 48.8042 85.6943 46.8624 85.6943 44.7968C85.6943 42.7312 84.89 40.7892 83.4293 39.3287ZM80.667 47.5027L44.6473 83.523C43.9246 84.2457 42.9635 84.6437 41.9414 84.6437C40.9193 84.6437 39.9582 84.2457 39.2355 83.5228L16.4736 60.7613C15.7508 60.0384 15.3527 59.0775 15.3527 58.0552C15.3525 57.033 15.7508 56.0718 16.4736 55.3492L52.4936 19.3292C53.2396 18.5832 54.2195 18.2101 55.1996 18.2101C56.1795 18.2101 57.1596 18.5834 57.9055 19.3292L80.667 42.0908C81.3898 42.8136 81.7879 43.7746 81.7879 44.7968C81.7879 45.8189 81.3898 46.78 80.667 47.5027Z" fill="#18A6E1"/>
<path d="M63.6867 39.0785C64.4494 38.3158 64.4494 37.0791 63.6867 36.3162C62.9238 35.5535 61.6874 35.5535 60.9244 36.3162L59.7998 37.4408C56.7968 35.5859 52.9437 35.8349 50.508 38.2703C49.0878 39.6904 48.3613 41.6189 48.4621 43.7003C48.5595 45.7105 49.4251 47.6294 50.8992 49.1035C50.8994 49.1037 50.8996 49.1037 50.8996 49.1039C52.4705 50.6755 52.6458 53.0568 51.2904 54.4123C49.9343 55.7679 47.5527 55.5923 45.9812 54.0212C44.4097 52.4496 44.2343 50.0679 45.59 48.7121C46.3527 47.9494 46.3527 46.7126 45.59 45.9498C44.8271 45.1871 43.5908 45.1871 42.8277 45.9498C40.3921 48.3853 40.1433 52.2384 41.9982 55.2416L40.6638 56.5757C39.9011 57.3384 39.9011 58.5751 40.6638 59.338C41.0462 59.7199 41.546 59.9105 42.0458 59.9105C42.5458 59.9105 43.0455 59.7197 43.4269 59.3384L44.7621 58.0033C46.0742 58.8136 47.548 59.2242 48.9957 59.2242C50.8607 59.224 52.6816 58.5457 54.0529 57.1746C56.931 54.2962 56.756 49.4378 53.6632 46.3431C53.6626 46.3425 53.6623 46.3419 53.6617 46.3414C52.8753 45.555 52.4144 44.5501 52.364 43.5113C52.3173 42.5441 52.639 41.6638 53.2705 41.0326C54.6259 39.6769 57.0072 39.8523 58.5789 41.4232C58.579 41.4234 58.5791 41.4236 58.5792 41.4238C58.5794 41.424 58.5796 41.424 58.5796 41.424C60.1507 42.9957 60.3259 45.3769 58.9703 46.7326C58.2076 47.4953 58.2076 48.732 58.9703 49.4949C59.3517 49.8763 59.8515 50.0669 60.3513 50.0669C60.8511 50.0669 61.3509 49.8763 61.7324 49.4949C64.1679 47.0591 64.4169 43.206 62.5621 40.2031L63.6867 39.0785Z" fill="#18A6E1"/>
<path d="M43.9195 71.4586L33.888 61.427C33.1253 60.6648 31.889 60.6645 31.1257 61.427C30.363 62.1896 30.363 63.4264 31.1257 64.1893L41.1574 74.2209C41.5388 74.6021 42.0386 74.793 42.5384 74.793C43.0382 74.793 43.538 74.6021 43.9195 74.2209C44.6822 73.4582 44.6822 72.2215 43.9195 71.4586Z" fill="#18A6E1"/>
<path d="M28.5369 56.0762C28.1738 55.7131 27.6717 55.5039 27.1563 55.5039C26.6426 55.5039 26.1406 55.7129 25.7754 56.0762C25.4121 56.4395 25.2031 56.9434 25.2031 57.459C25.2031 57.9727 25.4119 58.4766 25.7754 58.8398C26.1387 59.2031 26.6426 59.4121 27.1563 59.4121C27.6719 59.4121 28.1738 59.2031 28.5369 58.8398C28.9022 58.4746 29.1111 57.9727 29.1111 57.459C29.1111 56.9434 28.9022 56.4414 28.5369 56.0762Z" fill="#18A6E1"/>
</svg>
