<svg width="100" height="100" viewBox="0 0 100 100" fill="none" xmlns="http://www.w3.org/2000/svg">
<g clip-path="url(#clip0)">
<path d="M23.334 65.8335C17.8189 65.8335 13.334 70.3185 13.334 75.8335C13.334 81.3485 17.8189 85.8335 23.334 85.8335C28.849 85.8335 33.334 81.3485 33.334 75.8335C33.334 70.3185 28.8488 65.8335 23.334 65.8335ZM23.334 82.5001C19.6572 82.5001 16.6674 79.5101 16.6674 75.8335C16.6674 72.1567 19.6574 69.1669 23.334 69.1669C27.0105 69.1669 30.0006 72.1569 30.0006 75.8335C30.0006 79.5101 27.0105 82.5001 23.334 82.5001Z" fill="#18A6E1"/>
<path d="M80 65.8335C74.485 65.8335 70 70.3185 70 75.8335C70 81.3485 74.485 85.8335 80 85.8335C85.515 85.8335 90 81.3485 90 75.8335C90 70.3185 85.515 65.8335 80 65.8335ZM80 82.5001C76.3232 82.5001 73.3334 79.5101 73.3334 75.8335C73.3334 72.1567 76.3234 69.1669 80 69.1669C83.6768 69.1669 86.6666 72.1569 86.6666 75.8335C86.6666 79.5101 83.6768 82.5001 80 82.5001Z" fill="#18A6E1"/>
<path d="M99.7355 56.5984L84.7355 33.265C84.4289 32.7883 83.9006 32.5 83.3338 32.5H65.0006C64.0789 32.5 63.334 33.2467 63.334 34.1666V75.8332C63.334 76.7549 64.0789 77.4998 65.0006 77.4998H71.6672V74.1664H66.6672V35.8334H82.4238L96.6672 57.99V74.1668H88.3338V77.5H98.3338C99.2555 77.5 100 76.7551 100 75.8334V57.5C100.001 57.1816 99.909 56.8666 99.7355 56.5984Z" fill="#18A6E1"/>
<path d="M73.3332 54.1665V42.4999H86.6666V39.1665H71.6666C70.7449 39.1665 70 39.9132 70 40.8331V55.8331C70 56.7548 70.7449 57.4997 71.6666 57.4997H96.6666V54.1663H73.3332V54.1665Z" fill="#18A6E1"/>
<path d="M65 20.8335H1.6666C0.74668 20.8335 0 21.5802 0 22.5001V75.8335C0 76.7552 0.74668 77.5001 1.6666 77.5001H15V74.1667H3.3334V24.1667H63.3334V74.1667H31.6666V77.5001H65C65.9217 77.5001 66.6666 76.7552 66.6666 75.8335V22.5001C66.6666 21.5802 65.9217 20.8335 65 20.8335Z" fill="#18A6E1"/>
<path d="M11.666 67.5H1.66602V70.8334H11.666V67.5Z" fill="#18A6E1"/>
<path d="M63.3334 67.5H35V70.8334H63.3334V67.5Z" fill="#18A6E1"/>
<path d="M98.3336 67.5H91.667V70.8334H98.3336V67.5Z" fill="#18A6E1"/>
<path d="M65.0004 27.5H6.66699V30.8334H65.0004V27.5Z" fill="#18A6E1"/>
<path d="M25.0004 74.1667H21.667V77.5001H25.0004V74.1667Z" fill="#18A6E1"/>
<path d="M81.6664 74.1667H78.333V77.5001H81.6664V74.1667Z" fill="#18A6E1"/>
<path d="M30.0004 14.1665H6.66699V17.4999H30.0004V14.1665Z" fill="#18A6E1"/>
<path d="M3.3334 14.1665H0V17.4999H3.3334V14.1665Z" fill="#18A6E1"/>
</g>
<defs>
<clipPath id="clip0">
<rect width="100" height="100" fill="white"/>
</clipPath>
</defs>
</svg>
