<svg width="100" height="100" viewBox="0 0 100 100" fill="none" xmlns="http://www.w3.org/2000/svg">
<path d="M50 76.5625C48.7639 76.5625 47.5555 76.9291 46.5277 77.6158C45.4999 78.3026 44.6988 79.2787 44.2258 80.4207C43.7527 81.5628 43.6289 82.8194 43.8701 84.0318C44.1113 85.2442 44.7065 86.3578 45.5806 87.2319C46.4547 88.106 47.5683 88.7013 48.7807 88.9424C49.9931 89.1836 51.2497 89.0598 52.3918 88.5868C53.5338 88.1137 54.5099 87.3126 55.1967 86.2848C55.8835 85.257 56.25 84.0486 56.25 82.8125C56.25 81.1549 55.5915 79.5652 54.4194 78.3931C53.2473 77.221 51.6576 76.5625 50 76.5625ZM50 85.9375C49.3819 85.9375 48.7778 85.7542 48.2638 85.4108C47.7499 85.0675 47.3494 84.5794 47.1129 84.0084C46.8764 83.4374 46.8145 82.809 46.9351 82.2028C47.0556 81.5967 47.3533 81.0398 47.7903 80.6028C48.2273 80.1658 48.7842 79.8681 49.3903 79.7475C49.9965 79.627 50.6249 79.6889 51.1959 79.9254C51.7669 80.1619 52.255 80.5624 52.5984 81.0763C52.9417 81.5902 53.125 82.1944 53.125 82.8125C53.125 83.6413 52.7958 84.4362 52.2097 85.0222C51.6237 85.6083 50.8288 85.9375 50 85.9375Z" fill="#18A6E1"/>
<path d="M62.875 78.1719L61.8281 77.9063L62.3906 76.9844C62.5694 76.6859 62.6434 76.3363 62.6009 75.991C62.5584 75.6457 62.402 75.3244 62.1562 75.0781L57.7344 70.6563C57.4881 70.4105 57.1668 70.2541 56.8215 70.2116C56.4762 70.1691 56.1266 70.2431 55.8281 70.4219L54.9062 70.9844L54.6406 69.9375C54.5569 69.5987 54.3621 69.2978 54.0875 69.0826C53.8128 68.8673 53.474 68.7503 53.125 68.75H46.875C46.526 68.7503 46.1872 68.8673 45.9125 69.0826C45.6379 69.2978 45.4431 69.5987 45.3594 69.9375L45.0938 70.9844L44.1719 70.4219C43.8723 70.2468 43.5236 70.175 43.1792 70.2173C42.8348 70.2596 42.5139 70.4138 42.2656 70.6563L37.8437 75.0781C37.598 75.3244 37.4416 75.6457 37.3991 75.991C37.3566 76.3363 37.4306 76.6859 37.6094 76.9844L38.1719 77.9063L37.125 78.1719C36.7862 78.2556 36.4853 78.4504 36.2701 78.725C36.0548 78.9997 35.9378 79.3385 35.9375 79.6875V85.9375C35.9378 86.2865 36.0548 86.6253 36.2701 86.9C36.4853 87.1746 36.7862 87.3694 37.125 87.4531L38.1719 87.7188L37.6094 88.6406C37.4306 88.9391 37.3566 89.2887 37.3991 89.634C37.4416 89.9793 37.598 90.3006 37.8437 90.5469L42.2656 94.9687C42.5139 95.2112 42.8348 95.3654 43.1792 95.4077C43.5236 95.45 43.8723 95.3782 44.1719 95.2031L45.0938 94.6406L45.3594 95.6875C45.4431 96.0263 45.6379 96.3272 45.9125 96.5424C46.1872 96.7577 46.526 96.8747 46.875 96.875H53.125C53.474 96.8747 53.8128 96.7577 54.0875 96.5424C54.3621 96.3272 54.5569 96.0263 54.6406 95.6875L54.9062 94.6406L55.8281 95.2031C56.1277 95.3782 56.4764 95.45 56.8208 95.4077C57.1652 95.3654 57.4861 95.2112 57.7344 94.9687L62.1562 90.5469C62.402 90.3006 62.5584 89.9793 62.6009 89.634C62.6434 89.2887 62.5694 88.9391 62.3906 88.6406L61.8281 87.7188L62.875 87.4531C63.2138 87.3694 63.5147 87.1746 63.7299 86.9C63.9452 86.6253 64.0622 86.2865 64.0625 85.9375V79.6875C64.0622 79.3385 63.9452 78.9997 63.7299 78.725C63.5147 78.4504 63.2138 78.2556 62.875 78.1719ZM60.9375 84.7188L59.0312 85.1875C58.7948 85.2482 58.5757 85.3631 58.3912 85.5231C58.2068 85.6831 58.0622 85.8838 57.9687 86.1094C57.8741 86.3356 57.8346 86.5812 57.8536 86.8257C57.8727 87.0702 57.9496 87.3067 58.0781 87.5156L59.0781 89.2031L56.3906 91.8906L54.7031 90.875C54.4916 90.7525 54.2548 90.6803 54.0109 90.6641C53.7671 90.6478 53.5227 90.6879 53.2969 90.7812C53.0713 90.8747 52.8706 91.0193 52.7106 91.2037C52.5506 91.3882 52.4357 91.6073 52.375 91.8437L51.9063 93.75H48.0938L47.625 91.8437C47.5643 91.6073 47.4494 91.3882 47.2894 91.2037C47.1294 91.0193 46.9287 90.8747 46.7031 90.7812C46.4773 90.6879 46.2329 90.6478 45.9891 90.6641C45.7452 90.6803 45.5084 90.7525 45.2969 90.875L43.6094 91.8906L40.9219 89.2031L41.9219 87.5156C42.0504 87.3067 42.1273 87.0702 42.1464 86.8257C42.1654 86.5812 42.1259 86.3356 42.0312 86.1094C41.9378 85.8838 41.7932 85.6831 41.6088 85.5231C41.4243 85.3631 41.2052 85.2482 40.9687 85.1875L39.0625 84.7188V80.9062L40.9687 80.4375C41.2052 80.3768 41.4243 80.2619 41.6088 80.1019C41.7932 79.9419 41.9378 79.7412 42.0312 79.5156C42.1259 79.2894 42.1654 79.0438 42.1464 78.7993C42.1273 78.5548 42.0504 78.3183 41.9219 78.1094L40.9219 76.4219L43.6094 73.7344L45.2969 74.7344C45.5058 74.8629 45.7423 74.9398 45.9868 74.9589C46.2313 74.9779 46.4769 74.9384 46.7031 74.8438C46.9287 74.7503 47.1294 74.6057 47.2894 74.4213C47.4494 74.2368 47.5643 74.0177 47.625 73.7813L48.0938 71.875H51.9063L52.375 73.7813C52.4357 74.0177 52.5506 74.2368 52.7106 74.4213C52.8706 74.6057 53.0713 74.7503 53.2969 74.8438C53.5231 74.9384 53.7687 74.9779 54.0132 74.9589C54.2577 74.9398 54.4942 74.8629 54.7031 74.7344L56.3906 73.7344L59.0781 76.4219L58.0781 78.1094C57.9496 78.3183 57.8727 78.5548 57.8536 78.7993C57.8346 79.0438 57.8741 79.2894 57.9687 79.5156C58.0622 79.7412 58.2068 79.9419 58.3912 80.1019C58.5757 80.2619 58.7948 80.3768 59.0312 80.4375L60.9375 80.9062V84.7188Z" fill="#18A6E1"/>
<path d="M59.375 34.375H40.625C39.3829 34.3787 38.1928 34.8738 37.3145 35.752C36.4363 36.6303 35.9412 37.8204 35.9375 39.0625V60.9375C35.9412 62.1796 36.4363 63.3697 37.3145 64.248C38.1928 65.1262 39.3829 65.6213 40.625 65.625H59.375C60.6171 65.6213 61.8072 65.1262 62.6855 64.248C63.5637 63.3697 64.0588 62.1796 64.0625 60.9375V39.0625C64.0588 37.8204 63.5637 36.6303 62.6855 35.752C61.8072 34.8738 60.6171 34.3787 59.375 34.375ZM60.9375 60.9375C60.9375 61.3519 60.7729 61.7493 60.4799 62.0424C60.1868 62.3354 59.7894 62.5 59.375 62.5H40.625C40.2106 62.5 39.8132 62.3354 39.5201 62.0424C39.2271 61.7493 39.0625 61.3519 39.0625 60.9375V56.25H60.9375V60.9375ZM60.9375 53.125H39.0625V46.875H60.9375V53.125ZM60.9375 43.75H39.0625V39.0625C39.0625 38.6481 39.2271 38.2507 39.5201 37.9576C39.8132 37.6646 40.2106 37.5 40.625 37.5H59.375C59.7894 37.5 60.1868 37.6646 60.4799 37.9576C60.7729 38.2507 60.9375 38.6481 60.9375 39.0625V43.75Z" fill="#18A6E1"/>
<path d="M82.8125 43.75C81.5764 43.75 80.368 44.1166 79.3402 44.8033C78.3124 45.4901 77.5113 46.4662 77.0383 47.6082C76.5652 48.7503 76.4414 50.0069 76.6826 51.2193C76.9238 52.4317 77.519 53.5453 78.3931 54.4194C79.2672 55.2935 80.3808 55.8888 81.5932 56.1299C82.8056 56.3711 84.0622 56.2473 85.2043 55.7743C86.3463 55.3012 87.3224 54.5001 88.0092 53.4723C88.696 52.4445 89.0625 51.2361 89.0625 50C89.0625 48.3424 88.404 46.7527 87.2319 45.5806C86.0598 44.4085 84.4701 43.75 82.8125 43.75ZM82.8125 53.125C82.1944 53.125 81.5903 52.9417 81.0763 52.5983C80.5624 52.255 80.1619 51.7669 79.9254 51.1959C79.6889 50.6249 79.627 49.9965 79.7476 49.3903C79.8681 48.7842 80.1658 48.2273 80.6028 47.7903C81.0398 47.3533 81.5967 47.0556 82.2028 46.935C82.809 46.8145 83.4374 46.8764 84.0084 47.1129C84.5794 47.3494 85.0675 47.7499 85.4109 48.2638C85.7542 48.7777 85.9375 49.3819 85.9375 50C85.9375 50.8288 85.6083 51.6237 85.0222 52.2097C84.4362 52.7958 83.6413 53.125 82.8125 53.125Z" fill="#18A6E1"/>
<path d="M95.6875 45.3594L94.6406 45.0938L95.2031 44.1719C95.3819 43.8734 95.4559 43.5238 95.4134 43.1785C95.3709 42.8332 95.2145 42.5119 94.9687 42.2656L90.5469 37.8437C90.2986 37.6013 89.9777 37.4471 89.6333 37.4048C89.2889 37.3625 88.9402 37.4343 88.6406 37.6094L87.7188 38.1719L87.4531 37.125C87.3694 36.7862 87.1746 36.4853 86.9 36.2701C86.6253 36.0548 86.2865 35.9378 85.9375 35.9375H79.6875C79.3385 35.9378 78.9997 36.0548 78.725 36.2701C78.4504 36.4853 78.2556 36.7862 78.1719 37.125L77.9063 38.1719L76.9844 37.6094C76.685 37.4338 76.3361 37.3616 75.9916 37.404C75.6471 37.4464 75.3261 37.6009 75.0781 37.8437L70.6563 42.2656C70.4105 42.5119 70.2541 42.8332 70.2116 43.1785C70.1691 43.5238 70.2431 43.8734 70.4219 44.1719L70.9844 45.0938L69.9375 45.3594C69.5987 45.4431 69.2978 45.6379 69.0826 45.9125C68.8673 46.1872 68.7503 46.526 68.75 46.875V53.125C68.7503 53.474 68.8673 53.8128 69.0826 54.0875C69.2978 54.3621 69.5987 54.5569 69.9375 54.6406L70.9844 54.9062L70.4219 55.8281C70.2431 56.1266 70.1691 56.4762 70.2116 56.8215C70.2541 57.1668 70.4105 57.4881 70.6563 57.7344L75.0781 62.1562C75.3261 62.3991 75.6471 62.5536 75.9916 62.596C76.3361 62.6384 76.685 62.5662 76.9844 62.3906L77.9063 61.8281L78.1719 62.875C78.2556 63.2138 78.4504 63.5147 78.725 63.7299C78.9997 63.9452 79.3385 64.0622 79.6875 64.0625H85.9375C86.2865 64.0622 86.6253 63.9452 86.9 63.7299C87.1746 63.5147 87.3694 63.2138 87.4531 62.875L87.7188 61.8281L88.6406 62.3906C88.9402 62.5657 89.2889 62.6375 89.6333 62.5952C89.9777 62.5529 90.2986 62.3987 90.5469 62.1562L94.9687 57.7344C95.2145 57.4881 95.3709 57.1668 95.4134 56.8215C95.4559 56.4762 95.3819 56.1266 95.2031 55.8281L94.6406 54.9062L95.6875 54.6406C96.0263 54.5569 96.3272 54.3621 96.5424 54.0875C96.7577 53.8128 96.8747 53.474 96.875 53.125V46.875C96.8747 46.526 96.7577 46.1872 96.5424 45.9125C96.3272 45.6379 96.0263 45.4431 95.6875 45.3594ZM93.75 51.9063L91.8437 52.375C91.6073 52.4357 91.3882 52.5506 91.2037 52.7106C91.0193 52.8706 90.8747 53.0713 90.7812 53.2969C90.6866 53.5231 90.6471 53.7687 90.6661 54.0132C90.6852 54.2577 90.7621 54.4942 90.8906 54.7031L91.8906 56.3906L89.2031 59.0781L87.5156 58.0625C87.3041 57.94 87.0673 57.8678 86.8234 57.8516C86.5796 57.8353 86.3352 57.8754 86.1094 57.9687C85.8838 58.0622 85.6831 58.2068 85.5231 58.3912C85.3631 58.5757 85.2482 58.7948 85.1875 59.0312L84.7188 60.9375H80.9062L80.4375 59.0312C80.3768 58.7948 80.2619 58.5757 80.1019 58.3912C79.9419 58.2068 79.7412 58.0622 79.5156 57.9687C79.2898 57.8754 79.0454 57.8353 78.8016 57.8516C78.5577 57.8678 78.3209 57.94 78.1094 58.0625L76.4219 59.0781L73.7344 56.3906L74.7344 54.7031C74.8629 54.4942 74.9398 54.2577 74.9589 54.0132C74.9779 53.7687 74.9384 53.5231 74.8438 53.2969C74.7503 53.0713 74.6057 52.8706 74.4213 52.7106C74.2368 52.5506 74.0177 52.4357 73.7813 52.375L71.875 51.9063V48.0938L73.7813 47.625C74.0177 47.5643 74.2368 47.4494 74.4213 47.2894C74.6057 47.1294 74.7503 46.9287 74.8438 46.7031C74.9384 46.4769 74.9779 46.2313 74.9589 45.9868C74.9398 45.7423 74.8629 45.5058 74.7344 45.2969L73.7344 43.6094L76.4219 40.9219L78.1094 41.9219C78.3183 42.0504 78.5548 42.1273 78.7993 42.1464C79.0438 42.1654 79.2894 42.1259 79.5156 42.0312C79.7412 41.9378 79.9419 41.7932 80.1019 41.6088C80.2619 41.4243 80.3768 41.2052 80.4375 40.9687L80.9062 39.0625H84.7188L85.1875 40.9687C85.2482 41.2052 85.3631 41.4243 85.5231 41.6088C85.6831 41.7932 85.8838 41.9378 86.1094 42.0312C86.3356 42.1259 86.5812 42.1654 86.8257 42.1464C87.0702 42.1273 87.3067 42.0504 87.5156 41.9219L89.2031 40.9219L91.8906 43.6094L90.8906 45.2969C90.7621 45.5058 90.6852 45.7423 90.6661 45.9868C90.6471 46.2313 90.6866 46.4769 90.7812 46.7031C90.8747 46.9287 91.0193 47.1294 91.2037 47.2894C91.3882 47.4494 91.6073 47.5643 91.8437 47.625L93.75 48.0938V51.9063Z" fill="#18A6E1"/>
<path d="M23.4375 50C23.4375 48.7639 23.0709 47.5555 22.3842 46.5277C21.6974 45.4999 20.7213 44.6988 19.5793 44.2258C18.4372 43.7527 17.1806 43.6289 15.9682 43.8701C14.7558 44.1113 13.6422 44.7065 12.7681 45.5806C11.894 46.4547 11.2988 47.5683 11.0576 48.7807C10.8164 49.9931 10.9402 51.2497 11.4133 52.3918C11.8863 53.5338 12.6874 54.5099 13.7152 55.1967C14.743 55.8835 15.9514 56.25 17.1875 56.25C18.8451 56.25 20.4348 55.5915 21.6069 54.4194C22.779 53.2473 23.4375 51.6576 23.4375 50ZM17.1875 53.125C16.5694 53.125 15.9653 52.9417 15.4513 52.5984C14.9374 52.255 14.5369 51.7669 14.3004 51.1959C14.0639 50.6249 14.002 49.9965 14.1225 49.3903C14.2431 48.7842 14.5408 48.2273 14.9778 47.7903C15.4148 47.3533 15.9717 47.0556 16.5778 46.9351C17.184 46.8145 17.8124 46.8764 18.3834 47.1129C18.9544 47.3494 19.4425 47.7499 19.7858 48.2638C20.1292 48.7778 20.3125 49.3819 20.3125 50C20.3125 50.8288 19.9833 51.6237 19.3972 52.2097C18.8112 52.7958 18.0163 53.125 17.1875 53.125Z" fill="#18A6E1"/>
<path d="M21.8281 62.8781L22.0891 61.8344L23.0125 62.3875C23.3111 62.5666 23.6611 62.6408 24.0067 62.5984C24.3524 62.5559 24.6739 62.3992 24.9203 62.1531L29.3406 57.7344C29.5873 57.4881 29.7446 57.1663 29.7873 56.8203C29.8301 56.4743 29.7559 56.124 29.5766 55.825L29.0219 54.9016L30.0656 54.6406C30.4038 54.5563 30.7041 54.3613 30.9187 54.0867C31.1333 53.812 31.2499 53.4735 31.25 53.125V46.875C31.2499 46.5265 31.1333 46.188 30.9187 45.9133C30.7041 45.6387 30.4038 45.4437 30.0656 45.3594L29.0219 45.0984L29.5766 44.175C29.7559 43.876 29.8301 43.5257 29.7873 43.1797C29.7446 42.8337 29.5873 42.512 29.3406 42.2656L24.9203 37.8469C24.6741 37.6005 24.3526 37.4435 24.007 37.4008C23.6613 37.3581 23.3113 37.432 23.0125 37.6109L22.0891 38.1656L21.8281 37.1219C21.7438 36.7837 21.5488 36.4834 21.2742 36.2688C20.9995 36.0542 20.661 35.9376 20.3125 35.9375H14.0625C13.714 35.9376 13.3755 36.0542 13.1008 36.2688C12.8262 36.4834 12.6312 36.7837 12.5469 37.1219L12.2859 38.1656L11.3625 37.6109C11.0637 37.432 10.7137 37.3581 10.368 37.4008C10.0224 37.4435 9.70091 37.6005 9.45469 37.8469L5.03437 42.2656C4.78768 42.512 4.63044 42.8337 4.58769 43.1797C4.54494 43.5257 4.61912 43.876 4.79844 44.175L5.35313 45.0984L4.30937 45.3594C3.9712 45.4437 3.67093 45.6387 3.45633 45.9133C3.24172 46.188 3.1251 46.5265 3.125 46.875V53.125C3.1251 53.4735 3.24172 53.812 3.45633 54.0867C3.67093 54.3613 3.9712 54.5563 4.30937 54.6406L5.35313 54.9016L4.79844 55.825C4.61912 56.124 4.54494 56.4743 4.58769 56.8203C4.63044 57.1663 4.78768 57.4881 5.03437 57.7344L9.45469 62.1531C9.70109 62.3992 10.0226 62.5559 10.3683 62.5984C10.7139 62.6408 11.0639 62.5666 11.3625 62.3875L12.2859 61.8344L12.5469 62.8781C12.6312 63.2163 12.8262 63.5166 13.1008 63.7312C13.3755 63.9458 13.714 64.0624 14.0625 64.0625H20.3125C20.661 64.0624 20.9995 63.9458 21.2742 63.7312C21.5488 63.5166 21.7438 63.2163 21.8281 62.8781ZM19.5688 59.0312L19.1 60.9375H15.2828L14.8141 59.0312C14.7549 58.7943 14.641 58.5746 14.4816 58.3896C14.3221 58.2047 14.1216 58.0597 13.896 57.9663C13.6704 57.8728 13.426 57.8336 13.1825 57.8516C12.939 57.8697 12.7031 57.9446 12.4937 58.0703L10.8094 59.0813L8.10625 56.3859L9.11719 54.7016C9.24289 54.4922 9.31779 54.2563 9.33586 54.0128C9.35393 53.7693 9.31467 53.5249 9.22124 53.2993C9.12781 53.0737 8.9828 52.8732 8.79785 52.7137C8.6129 52.5543 8.39316 52.4404 8.15625 52.3812L6.25 51.9047V48.0953L8.15625 47.6266C8.39316 47.5674 8.6129 47.4535 8.79785 47.2941C8.9828 47.1346 9.12781 46.9341 9.22124 46.7085C9.31467 46.4829 9.35393 46.2385 9.33586 45.995C9.31779 45.7515 9.24289 45.5156 9.11719 45.3063L8.10625 43.6219L10.8016 40.9266L12.4859 41.9375C12.6953 42.0632 12.9312 42.1381 13.1747 42.1562C13.4182 42.1742 13.6626 42.135 13.8882 42.0416C14.1138 41.9481 14.3143 41.8031 14.4738 41.6182C14.6332 41.4332 14.7471 41.2135 14.8062 40.9766L15.275 39.0703H19.0844L19.5531 40.9766C19.6123 41.2135 19.7262 41.4332 19.8856 41.6182C20.045 41.8031 20.2456 41.9481 20.4712 42.0416C20.6968 42.135 20.9412 42.1742 21.1847 42.1562C21.4282 42.1381 21.6641 42.0632 21.8734 41.9375L23.5578 40.9266L26.2547 43.6219L25.2422 45.3063C25.1165 45.5156 25.0416 45.7515 25.0235 45.995C25.0054 46.2385 25.0447 46.4829 25.1381 46.7085C25.2316 46.9341 25.3766 47.1346 25.5615 47.2941C25.7465 47.4535 25.9662 47.5674 26.2031 47.6266L28.1094 48.0953V51.9047L26.2031 52.3734C25.9662 52.4326 25.7465 52.5465 25.5615 52.7059C25.3766 52.8654 25.2316 53.0659 25.1381 53.2915C25.0447 53.5171 25.0054 53.7615 25.0235 54.005C25.0416 54.2485 25.1165 54.4844 25.2422 54.6938L26.2547 56.3781L23.5578 59.0734L21.8734 58.0625C21.6641 57.9368 21.4282 57.8619 21.1847 57.8438C20.9412 57.8258 20.6968 57.865 20.4712 57.9584C20.2456 58.0519 20.045 58.1969 19.8856 58.3818C19.7262 58.5668 19.6123 58.7865 19.5531 59.0234L19.5688 59.0312Z" fill="#18A6E1"/>
<path d="M18.75 79.6875V73.4375H15.625V79.6875C15.625 80.9307 16.1189 82.123 16.9979 83.0021C17.877 83.8811 19.0693 84.375 20.3125 84.375H32.8125V81.25H20.3125C19.8981 81.25 19.5007 81.0854 19.2076 80.7924C18.9146 80.4993 18.75 80.1019 18.75 79.6875Z" fill="#18A6E1"/>
<path d="M81.25 79.6875C81.25 80.1019 81.0854 80.4993 80.7924 80.7924C80.4993 81.0854 80.1019 81.25 79.6875 81.25H67.1875V84.375H79.6875C80.9307 84.375 82.123 83.8811 83.0021 83.0021C83.8811 82.123 84.375 80.9307 84.375 79.6875V73.4375H81.25V79.6875Z" fill="#18A6E1"/>
<path d="M15.625 67.1875H18.75V70.3125H15.625V67.1875Z" fill="#18A6E1"/>
<path d="M50 10.9375C48.7639 10.9375 47.5555 11.3041 46.5277 11.9908C45.4999 12.6776 44.6988 13.6537 44.2258 14.7957C43.7527 15.9378 43.6289 17.1944 43.8701 18.4068C44.1113 19.6192 44.7065 20.7328 45.5806 21.6069C46.4547 22.481 47.5683 23.0763 48.7807 23.3174C49.9931 23.5586 51.2497 23.4348 52.3918 22.9617C53.5338 22.4887 54.5099 21.6876 55.1967 20.6598C55.8835 19.632 56.25 18.4236 56.25 17.1875C56.25 15.5299 55.5915 13.9402 54.4194 12.7681C53.2473 11.596 51.6576 10.9375 50 10.9375ZM50 20.3125C49.3819 20.3125 48.7778 20.1292 48.2638 19.7858C47.7499 19.4425 47.3494 18.9544 47.1129 18.3834C46.8764 17.8124 46.8145 17.184 46.9351 16.5778C47.0556 15.9717 47.3533 15.4148 47.7903 14.9778C48.2273 14.5408 48.7842 14.2431 49.3903 14.1225C49.9965 14.002 50.6249 14.0639 51.1959 14.3004C51.7669 14.5369 52.255 14.9374 52.5984 15.4513C52.9417 15.9652 53.125 16.5694 53.125 17.1875C53.125 18.0163 52.7958 18.8112 52.2097 19.3972C51.6237 19.9833 50.8288 20.3125 50 20.3125Z" fill="#18A6E1"/>
<path d="M62.875 12.5469L61.8281 12.2812L62.3906 11.3594C62.5694 11.0609 62.6434 10.7113 62.6009 10.366C62.5584 10.0207 62.402 9.69942 62.1562 9.45313L57.7344 5.03125C57.4861 4.78885 57.1652 4.63464 56.8208 4.59229C56.4764 4.54995 56.1277 4.62183 55.8281 4.79687L54.9062 5.35938L54.6406 4.3125C54.5569 3.97375 54.3621 3.67277 54.0875 3.45756C53.8128 3.24234 53.474 3.12527 53.125 3.125H46.875C46.526 3.12527 46.1872 3.24234 45.9125 3.45756C45.6379 3.67277 45.4431 3.97375 45.3594 4.3125L45.0938 5.35938L44.1719 4.79687C43.8723 4.62183 43.5236 4.54995 43.1792 4.59229C42.8348 4.63464 42.5139 4.78885 42.2656 5.03125L37.8437 9.45313C37.598 9.69942 37.4416 10.0207 37.3991 10.366C37.3566 10.7113 37.4306 11.0609 37.6094 11.3594L38.1719 12.2812L37.125 12.5469C36.7862 12.6306 36.4853 12.8254 36.2701 13.1C36.0548 13.3747 35.9378 13.7135 35.9375 14.0625V20.3125C35.9378 20.6615 36.0548 21.0003 36.2701 21.275C36.4853 21.5496 36.7862 21.7444 37.125 21.8281L38.1719 22.0938L37.6094 23.0156C37.4306 23.3141 37.3566 23.6637 37.3991 24.009C37.4416 24.3543 37.598 24.6756 37.8437 24.9219L42.2656 29.3438C42.5139 29.5862 42.8348 29.7404 43.1792 29.7827C43.5236 29.825 43.8723 29.7532 44.1719 29.5781L45.0938 29.0156L45.3594 30.0625C45.4431 30.4013 45.6379 30.7022 45.9125 30.9174C46.1872 31.1327 46.526 31.2497 46.875 31.25H53.125C53.474 31.2497 53.8128 31.1327 54.0875 30.9174C54.3621 30.7022 54.5569 30.4013 54.6406 30.0625L54.9062 29.0156L55.8281 29.5781C56.1277 29.7532 56.4764 29.825 56.8208 29.7827C57.1652 29.7404 57.4861 29.5862 57.7344 29.3438L62.1562 24.9219C62.402 24.6756 62.5584 24.3543 62.6009 24.009C62.6434 23.6637 62.5694 23.3141 62.3906 23.0156L61.8281 22.0938L62.875 21.8281C63.2138 21.7444 63.5147 21.5496 63.7299 21.275C63.9452 21.0003 64.0622 20.6615 64.0625 20.3125V14.0625C64.0622 13.7135 63.9452 13.3747 63.7299 13.1C63.5147 12.8254 63.2138 12.6306 62.875 12.5469ZM60.9375 19.0938L59.0312 19.5625C58.7948 19.6232 58.5757 19.7381 58.3912 19.8981C58.2068 20.0581 58.0622 20.2588 57.9687 20.4844C57.8741 20.7106 57.8346 20.9562 57.8536 21.2007C57.8727 21.4452 57.9496 21.6817 58.0781 21.8906L59.0781 23.5781L56.3906 26.2656L54.7031 25.2656C54.4942 25.1371 54.2577 25.0602 54.0132 25.0411C53.7687 25.0221 53.5231 25.0616 53.2969 25.1562C53.0713 25.2497 52.8706 25.3943 52.7106 25.5787C52.5506 25.7632 52.4357 25.9823 52.375 26.2188L51.9063 28.125H48.0938L47.625 26.2188C47.5643 25.9823 47.4494 25.7632 47.2894 25.5787C47.1294 25.3943 46.9287 25.2497 46.7031 25.1562C46.4769 25.0616 46.2313 25.0221 45.9868 25.0411C45.7423 25.0602 45.5058 25.1371 45.2969 25.2656L43.6094 26.2656L40.9219 23.5781L41.9219 21.8906C42.0504 21.6817 42.1273 21.4452 42.1464 21.2007C42.1654 20.9562 42.1259 20.7106 42.0312 20.4844C41.9378 20.2588 41.7932 20.0581 41.6088 19.8981C41.4243 19.7381 41.2052 19.6232 40.9687 19.5625L39.0625 19.0938V15.2812L40.9687 14.8125C41.2052 14.7518 41.4243 14.6369 41.6088 14.4769C41.7932 14.3169 41.9378 14.1162 42.0312 13.8906C42.1259 13.6644 42.1654 13.4188 42.1464 13.1743C42.1273 12.9298 42.0504 12.6933 41.9219 12.4844L40.9219 10.7969L43.6094 8.10938L45.2969 9.125C45.5084 9.24751 45.7452 9.31969 45.9891 9.33594C46.2329 9.3522 46.4773 9.3121 46.7031 9.21875C46.9287 9.12531 47.1294 8.98067 47.2894 8.79626C47.4494 8.61185 47.5643 8.39273 47.625 8.15625L48.0938 6.25H51.9063L52.375 8.15625C52.4357 8.39273 52.5506 8.61185 52.7106 8.79626C52.8706 8.98067 53.0713 9.12531 53.2969 9.21875C53.5227 9.3121 53.7671 9.3522 54.0109 9.33594C54.2548 9.31969 54.4916 9.24751 54.7031 9.125L56.3906 8.10938L59.0781 10.7969L58.0781 12.4844C57.9496 12.6933 57.8727 12.9298 57.8536 13.1743C57.8346 13.4188 57.8741 13.6644 57.9687 13.8906C58.0622 14.1162 58.2068 14.3169 58.3912 14.4769C58.5757 14.6369 58.7948 14.7518 59.0312 14.8125L60.9375 15.2812V19.0938Z" fill="#18A6E1"/>
<path d="M15.625 20.3125V26.5625H18.75V20.3125C18.75 19.8981 18.9146 19.5007 19.2076 19.2076C19.5007 18.9146 19.8981 18.75 20.3125 18.75H32.8125V15.625H20.3125C19.0693 15.625 17.877 16.1189 16.9979 16.9979C16.1189 17.877 15.625 19.0693 15.625 20.3125Z" fill="#18A6E1"/>
<path d="M81.25 20.3125V26.5625H84.375V20.3125C84.375 19.0693 83.8811 17.877 83.0021 16.9979C82.123 16.1189 80.9307 15.625 79.6875 15.625H67.1875V18.75H79.6875C80.1019 18.75 80.4993 18.9146 80.7924 19.2076C81.0854 19.5007 81.25 19.8981 81.25 20.3125Z" fill="#18A6E1"/>
<path d="M15.625 29.6875H18.75V32.8125H15.625V29.6875Z" fill="#18A6E1"/>
<path d="M81.25 67.1875H84.375V70.3125H81.25V67.1875Z" fill="#18A6E1"/>
<path d="M81.25 29.6875H84.375V32.8125H81.25V29.6875Z" fill="#18A6E1"/>
</svg>
