<svg width="16" height="16" viewBox="0 0 16 16" fill="none" xmlns="http://www.w3.org/2000/svg">
<path d="M10.6034 7.99965C10.6034 9.43324 9.4335 10.6032 7.99991 10.6032C6.56631 10.6032 5.39639 9.43324 5.39639 7.99965C5.39639 6.56606 6.56631 5.39613 7.99991 5.39613C9.4335 5.39613 10.6034 6.56606 10.6034 7.99965ZM7.99991 0.191056C9.07803 0.191056 10.1464 0.18129 11.2226 0.241837C12.4726 0.302384 13.5819 0.58754 14.496 1.5016C15.412 2.41762 15.6952 3.52504 15.7558 4.77504C15.8163 5.85316 15.8065 6.92153 15.8065 7.9977C15.8065 9.07582 15.8163 10.1442 15.7558 11.2204C15.6952 12.4704 15.4101 13.5797 14.496 14.4938C13.58 15.4098 12.4726 15.693 11.2226 15.7536C10.1444 15.8141 9.07608 15.8043 7.99991 15.8043C6.92374 15.8043 5.85342 15.8141 4.77725 15.7536C3.52725 15.693 2.41788 15.4079 1.50381 14.4938C0.587798 13.5778 0.304595 12.4704 0.244049 11.2204C0.183502 10.1422 0.193267 9.07387 0.193267 7.9977C0.193266 6.91957 0.183502 5.85121 0.244049 4.77504C0.304594 3.52504 0.589752 2.41567 1.50381 1.5016C2.41983 0.585587 3.52725 0.302384 4.77725 0.241837C5.85342 0.179337 6.92178 0.191056 7.99991 0.191056ZM3.99405 7.99965C3.99405 10.2164 5.78311 12.0055 7.99991 12.0055C10.2167 12.0055 12.0058 10.2164 12.0058 7.99965C12.0058 5.78285 10.2167 3.99379 7.99991 3.99379C5.78311 3.99379 3.99405 5.78285 3.99405 7.99965ZM11.2343 3.82973C11.2343 4.34731 11.6523 4.76527 12.1698 4.76527C12.6874 4.76527 13.1054 4.34731 13.1054 3.82973C13.1054 3.31215 12.6874 2.89418 12.1698 2.89418C12.0469 2.89403 11.9252 2.91812 11.8116 2.96508C11.6981 3.01204 11.5949 3.08095 11.508 3.16785C11.421 3.25476 11.3521 3.35795 11.3052 3.47153C11.2582 3.5851 11.2341 3.70683 11.2343 3.82973Z" fill="white"/>
</svg>
