<svg width="14" height="14" viewBox="0 0 14 14" fill="none" xmlns="http://www.w3.org/2000/svg">
<path d="M2.965 6.0925C4.045 8.215 5.785 9.955 7.9075 11.035L9.5575 9.385C9.7675 9.175 10.06 9.115 10.3225 9.1975C11.1625 9.475 12.0625 9.625 13 9.625C13.1989 9.625 13.3897 9.70402 13.5303 9.84467C13.671 9.98532 13.75 10.1761 13.75 10.375V13C13.75 13.1989 13.671 13.3897 13.5303 13.5303C13.3897 13.671 13.1989 13.75 13 13.75C9.61849 13.75 6.37548 12.4067 3.98439 10.0156C1.5933 7.62452 0.25 4.38151 0.25 1C0.25 0.801088 0.329018 0.610322 0.46967 0.46967C0.610322 0.329018 0.801088 0.25 1 0.25H3.625C3.82391 0.25 4.01468 0.329018 4.15533 0.46967C4.29598 0.610322 4.375 0.801088 4.375 1C4.375 1.9375 4.525 2.8375 4.8025 3.6775C4.885 3.94 4.825 4.2325 4.615 4.4425L2.965 6.0925Z" fill="#2B2A2A"/>
</svg>
