<svg width="18" height="18" viewBox="0 0 18 18" fill="none" xmlns="http://www.w3.org/2000/svg">
<path d="M11.7068 12.425L13.1068 11.025C13.2953 10.8388 13.5339 10.7113 13.7935 10.6581C14.0531 10.6048 14.3226 10.6281 14.5693 10.725L16.2755 11.4063C16.5248 11.5074 16.7385 11.6801 16.8898 11.9026C17.041 12.125 17.1231 12.3873 17.1255 12.6563V15.7813C17.1241 15.9643 17.0856 16.1451 17.0124 16.3128C16.9393 16.4805 16.8329 16.6317 16.6998 16.7573C16.5666 16.8828 16.4095 16.9801 16.2377 17.0433C16.066 17.1065 15.8833 17.1343 15.7005 17.125C3.74426 16.3813 1.33176 6.25628 0.875511 2.38128C0.854331 2.19099 0.873683 1.99837 0.932291 1.81609C0.9909 1.63382 1.08744 1.46602 1.21555 1.32374C1.34367 1.18145 1.50046 1.0679 1.67561 0.990565C1.85076 0.913227 2.0403 0.873851 2.23176 0.875026H5.25051C5.51989 0.875823 5.78287 0.957193 6.00563 1.10867C6.22839 1.26015 6.40074 1.4748 6.50051 1.72503L7.18176 3.43128C7.28192 3.67694 7.30747 3.94668 7.25523 4.20678C7.20299 4.46689 7.07526 4.70584 6.88801 4.89378L5.48801 6.29378C5.48801 6.29378 6.29426 11.75 11.7068 12.425Z" fill="white"/>
</svg>
