<svg width="12" height="18" viewBox="0 0 12 18" fill="none" xmlns="http://www.w3.org/2000/svg">
<path d="M6.00033 8.58317C5.44779 8.58317 4.91789 8.36368 4.52719 7.97298C4.13649 7.58228 3.91699 7.05237 3.91699 6.49984C3.91699 5.9473 4.13649 5.4174 4.52719 5.0267C4.91789 4.636 5.44779 4.4165 6.00033 4.4165C6.55286 4.4165 7.08276 4.636 7.47347 5.0267C7.86417 5.4174 8.08366 5.9473 8.08366 6.49984C8.08366 6.77342 8.02977 7.04433 7.92508 7.29709C7.82038 7.54986 7.66692 7.77952 7.47347 7.97298C7.28001 8.16643 7.05035 8.31989 6.79758 8.42459C6.54482 8.52928 6.27391 8.58317 6.00033 8.58317ZM6.00033 0.666504C4.45323 0.666504 2.9695 1.28109 1.87554 2.37505C0.781574 3.46901 0.166992 4.95274 0.166992 6.49984C0.166992 10.8748 6.00033 17.3332 6.00033 17.3332C6.00033 17.3332 11.8337 10.8748 11.8337 6.49984C11.8337 4.95274 11.2191 3.46901 10.1251 2.37505C9.03115 1.28109 7.54742 0.666504 6.00033 0.666504Z" fill="white"/>
</svg>
