<svg width="100" height="100" viewBox="0 0 100 100" fill="none" xmlns="http://www.w3.org/2000/svg">
<circle cx="50" cy="50" r="50" fill="#FFDF73"/>
<path d="M37.3158 57.3828L28.5932 76.816C28.2923 77.4861 28.8379 78.2282 29.5672 78.1408L34.4544 77.5566L37.2709 81.5955C37.6909 82.1977 38.6072 82.1117 38.9078 81.4418L47.7387 61.7671L37.3158 57.3828Z" fill="#FF507D"/>
<path d="M62.6842 57.3828L71.4069 76.816C71.7077 77.4861 71.1621 78.2282 70.4329 78.1408L65.5456 77.5566L62.729 81.5955C62.309 82.1977 61.3927 82.1117 61.0921 81.4418L52.2612 61.7671L62.6842 57.3828Z" fill="#D23C69"/>
<path d="M71.4068 76.816L65.2689 63.1418L65.0643 62.6858C65.0643 62.6858 63.8481 63.1418 62.9275 64.8375C62.4859 65.6509 61.8026 66.2493 61.3486 66.5858C61.0819 66.7837 60.9886 67.1393 61.1244 67.4424L65.6648 77.5712L70.4325 78.1412C71.162 78.2283 71.7075 77.4863 71.4068 76.816Z" fill="#FF507D"/>
<path d="M37.3158 57.3828L28.5932 76.8159C28.2923 77.4861 28.8379 78.2281 29.5672 78.1408L34.3349 77.5708L38.7322 67.7616C38.9653 67.2414 39.5572 67.0257 40.0967 67.2099C40.5833 67.3761 41.0979 67.4656 41.6234 67.4656C41.8728 67.4656 42.1245 67.4459 42.3712 67.4071L45.0128 66.9914C45.0224 66.9912 45.0315 66.9908 45.0403 66.9908C45.1209 66.9908 45.1673 67.0052 45.2083 67.0302L45.3403 67.1106L47.7387 61.7669L37.3158 57.3828Z" fill="#D23C69"/>
<path d="M74.0609 43.7612L72.6665 46.0481C72.352 46.564 72.2308 47.175 72.3246 47.772L72.7402 50.4136C72.889 51.3593 72.4955 52.309 71.7211 52.8721L69.5596 54.4443C69.0703 54.8003 68.7234 55.3186 68.5811 55.9067L67.9518 58.5075C67.7269 59.4363 67.0018 60.1615 66.0729 60.3862L63.4723 61.0155C62.8841 61.1577 62.3656 61.5047 62.0098 61.994L60.438 64.1548C59.8747 64.9292 58.9251 65.3227 57.9793 65.174L55.3386 64.7583C54.7416 64.6643 54.1306 64.7855 53.6145 65.1002L51.328 66.4945C50.5127 66.9916 49.488 66.9916 48.6729 66.4945L46.386 65.1001C45.8701 64.7856 45.2591 64.6643 44.6621 64.7582L42.0205 65.1738C41.0747 65.3226 40.1251 64.9291 39.562 64.1547L37.9898 61.9932C37.6338 61.5038 37.1155 61.157 36.5274 61.0147L33.9266 60.3853C32.9978 60.1605 32.2726 59.4353 32.0479 58.5065L31.4186 55.9058C31.2764 55.3177 30.9294 54.7992 30.4401 54.4433L28.2791 52.8713C27.5048 52.3081 27.1113 51.3585 27.26 50.4126L27.6756 47.772C27.7696 47.175 27.6485 46.564 27.3337 46.0478L25.9392 43.7612C25.4421 42.946 25.4421 41.9212 25.9392 41.1061L27.3336 38.8192C27.6481 38.3033 27.7694 37.6923 27.6755 37.0953L27.2599 34.4537C27.1111 33.508 27.5046 32.5583 28.279 31.9952L30.4405 30.423C30.9299 30.067 31.2767 29.5487 31.419 28.9606L32.0484 26.3598C32.2733 25.431 32.9984 24.7058 33.9272 24.4811L36.5279 23.8518C37.116 23.7096 37.6345 23.3626 37.9904 22.8733L39.5622 20.7125C40.1255 19.9381 41.0751 19.5446 42.021 19.6933L44.6616 20.109C45.2586 20.203 45.8696 20.0818 46.3858 19.7671L48.6723 18.3728C49.4875 17.8757 50.5123 17.8757 51.3274 18.3728L53.6144 19.7672C54.1303 20.0817 54.7412 20.203 55.3382 20.1091L57.9799 19.6935C58.9256 19.5447 59.8753 19.9382 60.4384 20.7126L62.0106 22.8741C62.3666 23.3635 62.8849 23.7103 63.473 23.8526L66.0737 24.482C67.0026 24.7068 67.7277 25.432 67.9525 26.3608L68.5818 28.9615C68.724 29.5496 69.071 30.0681 69.5602 30.424L71.7211 31.9957C72.4955 32.559 72.889 33.5086 72.7402 34.4545L72.3246 37.0951C72.2306 37.6921 72.3517 38.3031 72.6665 38.8192L74.0607 41.1057C74.558 41.9213 74.558 42.946 74.0609 43.7612Z" fill="#FFC850"/>
<path d="M35.304 37.3467C35.304 30.569 37.846 24.3875 42.0238 19.6941L42.0211 19.6937C41.0753 19.5447 40.1256 19.9383 39.5625 20.7127L37.9907 22.8736C37.6347 23.363 37.1164 23.7098 36.5282 23.8521L33.9276 24.4813C32.9987 24.706 32.2736 25.4312 32.0487 26.3601L31.4194 28.9608C31.2771 29.549 30.9301 30.0673 30.4409 30.4232L28.2793 31.9955C27.505 32.5586 27.1114 33.5082 27.2601 34.454L27.6757 37.0955C27.7697 37.6925 27.6485 38.3033 27.3339 38.8193L25.9392 41.1062C25.4421 41.9215 25.4421 42.9462 25.9392 43.7613L27.3335 46.0478C27.6482 46.5638 27.7692 47.175 27.6754 47.772L27.2598 50.4126C27.1108 51.3585 27.5044 52.3081 28.2788 52.8712L30.4396 54.443C30.929 54.799 31.2759 55.3173 31.4181 55.9055L32.0474 58.5061C32.272 59.435 32.9972 60.1601 33.9261 60.385L36.5269 61.0143C37.115 61.1566 37.6334 61.5036 37.9893 61.9928L39.5613 64.1543C40.1245 64.9286 41.074 65.3222 42.0198 65.1735L44.6612 64.7578C45.2582 64.6638 45.8691 64.785 46.3853 65.0997L48.6723 66.4941C49.4876 66.9912 50.5122 66.9912 51.3274 66.4941L53.6139 65.0998C54.1299 64.7851 54.741 64.6641 55.338 64.758L57.9787 65.1736C58.9246 65.3225 59.8742 64.929 60.4374 64.1546L60.6364 63.881C46.5374 63.2367 35.304 51.605 35.304 37.3467Z" fill="#E1A546"/>
<path d="M50.0006 60.5212C59.99 60.5212 68.0881 52.4231 68.0881 42.4337C68.0881 32.4442 59.99 24.3462 50.0006 24.3462C40.0111 24.3462 31.9131 32.4442 31.9131 42.4337C31.9131 52.4231 40.0111 60.5212 50.0006 60.5212Z" fill="#FFDC64"/>
<path d="M54.2217 51.2728C47.5649 50.2106 42.223 44.8688 41.1609 38.2119C40.7867 35.8662 40.939 33.6047 41.5089 31.5147C41.7901 30.4836 40.5647 29.6951 39.7506 30.3875C35.9552 33.6147 33.7007 38.5962 34.2572 44.0848C35.0037 51.4485 40.985 57.4296 48.3486 58.1761C53.8371 58.7326 58.8187 56.4783 62.0459 52.6828C62.7381 51.8685 61.9497 50.6433 60.9186 50.9245C58.8289 51.4948 56.5674 51.647 54.2217 51.2728Z" fill="#FFC850"/>
<path d="M49.9998 50.0389L43.4198 53.7221C42.7352 54.1054 41.9162 53.5101 42.0691 52.7407L43.5387 45.3445L38.0023 40.2247C37.4264 39.692 37.7392 38.7291 38.5182 38.6367L46.0066 37.7488L49.165 30.9015C49.4935 30.1891 50.5061 30.1891 50.8347 30.9015L53.9931 37.7488L61.4815 38.6367C62.2605 38.7291 62.5733 39.692 61.9973 40.2247L56.461 45.3445L57.9306 52.7407C58.0835 53.5101 57.2643 54.1054 56.5798 53.7221L49.9998 50.0389Z" fill="white"/>
<path d="M49.9836 30.3716C49.654 30.3775 49.3265 30.5512 49.165 30.9013L46.0066 37.7488L38.5182 38.6367C37.7392 38.7291 37.4264 39.692 38.0024 40.2246L43.5387 45.3445L42.0691 52.7407C41.9162 53.5101 42.7353 54.1053 43.4198 53.7221L44.4613 53.1392L46.2267 45.0677C46.3072 44.6995 46.2123 44.3147 45.9698 44.0261L44.0998 41.8015C43.784 41.4258 43.9692 40.8493 44.4447 40.728L47.4298 39.9657C47.886 39.8492 48.2337 39.4798 48.3226 39.0176L49.9836 30.3716Z" fill="#FFFAB4"/>
<path d="M57.6371 53.5992L54.0052 49.5637C53.4077 48.8998 52.4339 48.7303 51.6473 49.1532L50 50.0387L56.58 53.7219C56.9541 53.9314 57.3631 53.8429 57.6371 53.5992Z" fill="#FFFAB4"/>
</svg>
