<svg width="100" height="100" viewBox="0 0 100 100" fill="none" xmlns="http://www.w3.org/2000/svg">
<circle cx="50" cy="50" r="50" fill="#2ABCC8"/>
<g clip-path="url(#clip0)">
<path d="M77.1978 41.0141L73.8935 38.0635L67.1609 40.6509L66.2449 44.4313L62.7241 60.4029L74.1568 65.3835L75.5755 63.5518C77.533 59.537 78.6307 55.0259 78.6307 50.2576C78.6307 47.035 78.1266 43.9299 77.1978 41.0141Z" fill="#FE7D43"/>
<path d="M65.427 58.4653L61.4146 60.4034L51.0991 67.6693L55.6966 77.9265L58.9789 78.7398V78.7411C66.3136 76.0135 72.2157 70.4468 75.6164 63.4678L65.427 58.4653Z" fill="#EE6161"/>
<path d="M55.0499 67.9624L52.8613 66.4283L39.7817 64.4419L33.4976 74.5377L36.3901 78.1809V78.1822C40.0697 79.7648 44.1241 80.6412 48.3831 80.6412C52.11 80.6412 55.6795 79.9708 58.9791 78.7413V78.74L55.0499 67.9624Z" fill="#C2A1D5"/>
<path d="M40.3845 64.1835L33.1145 52.7632L20.4297 56.6877V62.1832C23.4913 69.3516 29.2306 75.1038 36.3901 78.182V78.1807L40.9869 67.6692L40.3845 64.1835Z" fill="#8AC9FE"/>
<path d="M23.3711 35.7759L19.9268 39.5928H19.9255C18.6806 42.9116 18 46.5054 18 50.2578C18 54.4913 18.8661 58.5214 20.4296 62.183H20.4308L31.0127 57.7512L32.3962 54.5732L33.2269 38.9408L23.3711 35.7759Z" fill="#75CDD5"/>
<path d="M41.274 22.8984H35.1539C28.1659 26.2837 22.6709 32.2661 19.9253 39.5932H19.9266L30.6415 43.6898L37.6474 40.1431L46.9125 31.8088L41.274 22.8984Z" fill="#6CF5C2"/>
<path d="M66.3802 44.4316L65.8189 41.936L58.9024 43.6896L58.5298 46.8816C58.8842 47.9423 59.0749 49.0784 59.0749 50.258C59.0749 51.8905 58.7089 53.436 58.0552 54.819L58.2049 57.3659L62.7241 59.7707L65.4269 58.4653C66.6244 55.9832 67.2961 53.1993 67.2961 50.258C67.2962 48.225 66.9738 46.2675 66.3802 44.4316Z" fill="#FD6930"/>
<path d="M58.0551 54.8188C56.887 57.2919 54.7991 59.2443 52.2326 60.2345L51.2461 62.0903L53.3025 67.3562L55.0498 67.962C59.6083 66.2451 63.3275 62.8202 65.427 58.4651L58.0551 54.8188Z" fill="#E94444"/>
<path d="M52.2329 60.2349C51.0392 60.6967 49.7406 60.95 48.3832 60.95C46.9298 60.95 45.5455 60.6609 44.2827 60.1338L42.1251 60.3677L39.5586 65.5999L40.987 67.6694C43.2592 68.6366 45.7592 69.1714 48.3832 69.1714C50.7296 69.1714 52.9762 68.7441 55.0501 67.9624L52.2329 60.2349Z" fill="#A274BF"/>
<path d="M38.5982 54.5732L36.91 53.3525L31.4009 55.2616L31.0127 57.7512C32.9356 62.2048 36.5205 65.7704 40.9868 67.6691L44.2825 60.1334C41.7481 59.0818 39.7049 57.0795 38.5982 54.5732Z" fill="#26A6FE"/>
<path d="M62.9486 23.5891C58.6242 21.2222 53.6602 19.875 48.3827 19.875C43.64 19.875 39.1519 20.9612 35.1538 22.8982L40.0807 33.2613L44.9756 35.4564L60.3769 38.0638L64.8582 28.5541L62.9486 23.5891Z" fill="#FEE97D"/>
<path d="M81.9544 38.6666C82.1067 39.1055 81.8636 39.5827 81.4209 39.7208L77.2757 41.0143L69.4241 43.4643C67.6687 38.009 63.8587 33.4761 58.9023 30.7792L62.8915 23.589L65.0025 19.7841C65.2251 19.3811 65.7369 19.2391 66.1347 19.4706C73.4733 23.7246 79.15 30.5271 81.9544 38.6666Z" fill="#FEC165"/>
<path d="M37.6911 50.2579C37.6911 48.9823 37.9137 47.7592 38.3244 46.6257L38.23 42.1689H33.6453L30.6416 43.6895C29.8842 45.7353 29.4697 47.9486 29.4697 50.2579C29.4697 52.9203 30.0199 55.4535 31.0127 57.7513L38.5982 54.5733C38.0148 53.2542 37.6911 51.7944 37.6911 50.2579Z" fill="#2ABCC8"/>
<path d="M43.919 34.501L40.0809 33.2607C35.74 35.382 32.333 39.1191 30.6416 43.6891L38.3243 46.6253C39.2609 44.0332 41.1697 41.9069 43.6121 40.6876V40.6863L45.372 38.7047L43.919 34.501Z" fill="#00F2A6"/>
<path d="M57.3848 33.6195L57.3832 33.6192C54.7068 32.1685 51.6415 31.3447 48.383 31.3447C45.4046 31.3447 42.5874 32.033 40.0811 33.2613L43.6122 40.6881C45.0477 39.9717 46.6686 39.5661 48.383 39.5661C50.1946 39.5661 51.9001 40.0164 53.3944 40.8122L56.0852 40.9446L58.7181 37.4342L57.3848 33.6195Z" fill="#FEDF30"/>
<path d="M69.4241 43.4645L66.3229 44.4317L58.5298 46.8817C57.6586 44.2602 55.7554 42.067 53.3501 40.7889L57.3275 33.6195L58.9024 30.7793C63.8588 33.4763 67.6688 38.0091 69.4241 43.4645Z" fill="#FDB441"/>
</g>
<defs>
<clipPath id="clip0">
<rect width="64" height="64" fill="white" transform="translate(18 18)"/>
</clipPath>
</defs>
</svg>
