<svg width="100" height="100" viewBox="0 0 100 100" fill="none" xmlns="http://www.w3.org/2000/svg">
<circle cx="50" cy="50" r="50" fill="#59F0FA"/>
<path d="M45.2148 37.6366C50.6373 37.6366 55.0331 33.2408 55.0331 27.8183C55.0331 22.3958 50.6373 18 45.2148 18C39.7923 18 35.3965 22.3958 35.3965 27.8183C35.3965 33.2408 39.7923 37.6366 45.2148 37.6366Z" fill="#97C9F9"/>
<path d="M69.0908 40.6358C66.8878 40.6358 65.1019 42.4217 65.1019 44.6247V41.4085C65.1019 39.2055 63.316 37.4197 61.113 37.4197C58.91 37.4197 57.1241 39.2055 57.1241 41.4085V39.7975C57.1241 37.5945 55.3382 35.8086 53.1352 35.8086C50.9322 35.8086 49.1463 37.5945 49.1463 39.7975V26.3251C49.1463 24.1221 47.3604 22.3362 45.1574 22.3362C42.9544 22.3362 41.1686 24.1221 41.1686 26.3251V54.9037C41.1686 55.4305 40.5216 55.6827 40.1649 55.295L33.7792 48.3504C32.2888 46.7296 29.7955 46.6773 28.2386 48.2344C26.727 49.7459 26.4776 52.4265 27.6844 54.1909L37.8871 69.1086C39.5995 71.6124 42.2027 73.3686 45.1655 74.019C45.4058 74.019 45.6006 74.2138 45.6006 74.4542V81.185C45.6006 81.6351 45.9654 81.9998 46.4155 81.9998H69.7109C70.1609 81.9998 70.5257 81.6351 70.5257 81.185V75.2925C70.5257 74.8507 70.6085 74.4129 70.7698 74.0018L71.0788 73.2141C72.3522 69.9677 73.0268 66.519 73.0749 63.0342L73.0795 58.9042V44.6246C73.0797 42.4217 71.2938 40.6358 69.0908 40.6358Z" fill="#FFEFE7"/>
<path d="M69.0908 40.6358C66.8878 40.6358 65.1019 42.4217 65.1019 44.6247V41.4085C65.1019 39.2055 63.316 37.4197 61.113 37.4197C58.91 37.4197 57.1241 39.2055 57.1241 41.4085V39.7975C57.1241 37.5945 55.3382 35.8086 53.1352 35.8086C50.9322 35.8086 49.1463 37.5945 49.1463 39.7975V26.3251C49.1463 24.1221 47.3604 22.3362 45.1574 22.3362C42.9544 22.3362 41.1686 24.1221 41.1686 26.3251V54.9037C41.1686 55.4305 40.5216 55.6827 40.1649 55.295L33.7792 48.3504C32.2888 46.7296 29.7955 46.6773 28.2386 48.2344C26.727 49.7459 26.4776 52.4265 27.6844 54.1909L37.8871 69.1086C39.5995 71.6124 42.2027 73.3686 45.1655 74.019C45.4058 74.019 45.6006 74.2138 45.6006 74.4542V81.185C45.6006 81.6351 45.9654 81.9998 46.4155 81.9998H69.7109C70.1609 81.9998 70.5257 81.6351 70.5257 81.185V75.2925C70.5257 74.8507 70.6085 74.4129 70.7698 74.0018L71.0788 73.2141C72.3522 69.9677 73.0268 66.519 73.0749 63.0342L73.0795 58.9042V44.6246C73.0797 42.4217 71.2938 40.6358 69.0908 40.6358Z" fill="#FFEFE7"/>
<path d="M41.1689 54.8687C42.7504 54.8687 44.0325 53.5866 44.0325 52.0051V26.1354C44.0325 24.9343 44.4783 23.8488 45.2006 23.0617C45.4271 22.8153 45.6808 22.5983 45.9563 22.4164C45.6983 22.3639 45.4314 22.3364 45.1578 22.3364C44.0569 22.3364 43.0594 22.7835 42.3371 23.5045C41.6147 24.2269 41.1689 25.2231 41.1689 26.3253V54.8687Z" fill="#FFE0D1"/>
<path d="M68.2788 44.9657C68.2788 43.1815 69.4516 41.6689 71.0687 41.16C70.4854 40.8262 69.8105 40.636 69.0909 40.636C66.8878 40.636 65.1021 42.4217 65.1021 44.6236V46.9261C65.1021 47.0133 65.1727 47.0838 65.2598 47.0838H66.1606C67.3305 47.084 68.2788 46.1355 68.2788 44.9657Z" fill="#FFE0D1"/>
<path d="M62.6087 37.7097C62.165 37.5294 61.6869 37.4286 61.1807 37.4202C58.9501 37.3829 57.0774 39.1855 57.1244 41.4914V47.6496C58.7816 47.6496 60.125 46.3061 60.125 44.649V41.4085C60.1249 39.7362 61.1493 38.3025 62.6087 37.7097Z" fill="#FFE0D1"/>
<path d="M54.5043 36.0498C54.0556 35.8855 53.5724 35.8 53.0652 35.8087C50.8753 35.8464 49.1465 37.6365 49.1465 39.8838V47.4426C50.6623 47.4426 51.8912 46.2138 51.8912 44.698V39.7969C51.891 38.0763 52.9775 36.6095 54.5043 36.0498Z" fill="#FFE0D1"/>
<path d="M31.0602 35.3331C30.6977 35.3331 30.3501 35.1288 30.1842 34.7798C29.1204 32.5416 28.5811 30.1421 28.5811 27.6482C28.5811 25.1542 29.1204 22.7546 30.1842 20.5165C30.414 20.0331 30.992 19.8274 31.4756 20.0573C31.959 20.287 32.1646 20.8651 31.9348 21.3486C30.9954 23.3249 30.5193 25.4444 30.5193 27.6483C30.5193 29.8522 30.9956 31.9717 31.9348 33.9479C32.1646 34.4313 31.959 35.0094 31.4756 35.2393C31.3412 35.3028 31.1996 35.3331 31.0602 35.3331Z" fill="#97C9F9"/>
<path d="M59.3701 35.3331C59.2307 35.3331 59.089 35.3028 58.9548 35.239C58.4714 35.0093 58.2657 34.4311 58.4954 33.9477C59.4347 31.9714 59.911 29.8519 59.911 27.6481C59.911 25.4443 59.4347 23.3248 58.4954 21.3484C58.2657 20.865 58.4713 20.2869 58.9548 20.0572C59.4382 19.8274 60.0163 20.033 60.246 20.5166C61.3099 22.755 61.8492 25.1544 61.8492 27.6482C61.8492 30.1421 61.3099 32.5415 60.246 34.7799C60.0801 35.1288 59.7325 35.3331 59.3701 35.3331Z" fill="#97C9F9"/>
<path d="M48.1997 73.9318C48.1997 72.6986 47.5022 71.5692 46.396 71.0242C44.4842 70.0825 41.5916 68.4675 40.4855 66.8509L30.0514 51.5957C29.5565 50.8708 29.3161 50.0426 29.3161 49.2207C29.3161 48.6098 29.4488 47.8688 29.7074 47.3105C29.1735 47.4957 28.67 47.8031 28.2386 48.2344C26.727 49.746 26.4776 52.4266 27.6844 54.191L37.8871 69.1087C39.5995 71.6125 42.2027 73.3687 45.1654 74.019C45.4058 74.019 45.6006 74.2139 45.6006 74.4542V81.1851C45.6006 81.6351 45.9654 81.9999 46.4155 81.9999H48.1997V73.9318Z" fill="#FFE0D1"/>
</svg>
