<svg width="100" height="100" viewBox="0 0 100 100" fill="none" xmlns="http://www.w3.org/2000/svg">
<circle cx="50" cy="50" r="50" fill="#47FFB2"/>
<g clip-path="url(#clip0)">
<path d="M74.4971 60.7388C72.7769 65.4009 70.1753 69.4546 66.7637 72.7861C62.8804 76.5781 57.7954 79.5913 51.6499 81.7407C51.4482 81.811 51.2378 81.8686 51.0264 81.9111C50.7471 81.9663 50.4629 81.9961 50.1812 82H50.126C49.8257 82 49.5239 81.9697 49.2246 81.9111C49.0132 81.8686 48.8057 81.811 48.605 81.7422C42.4521 79.5962 37.3608 76.5845 33.4736 72.7925C30.0605 69.4609 27.4595 65.4097 25.7417 60.7475C22.6181 52.271 22.7959 42.9331 22.9389 35.4292L22.9414 35.3139C22.9702 34.6943 22.9888 34.0434 22.999 33.3247C23.0513 29.7959 25.8569 26.8764 29.3862 26.6797C36.7446 26.269 42.437 23.8691 47.3008 19.1284L47.3433 19.0893C48.1509 18.3486 49.1685 17.9853 50.1812 18.0005C51.1577 18.0131 52.1304 18.3759 52.9092 19.0893L52.9507 19.1284C57.8154 23.8691 63.5078 26.269 70.8662 26.6797C74.3955 26.8764 77.2012 29.7959 77.2534 33.3247C77.2637 34.0483 77.2823 34.6982 77.3111 35.3139L77.3125 35.3628C77.4551 42.8808 77.6319 52.2373 74.4971 60.7388Z" fill="#00DD80"/>
<path d="M74.4971 60.7388C72.7769 65.4009 70.1753 69.4546 66.7637 72.7862C62.8804 76.5782 57.7954 79.5914 51.6499 81.7408C51.4482 81.8111 51.2378 81.8687 51.0264 81.9112C50.7471 81.9664 50.4629 81.9961 50.1812 82.0001V18.0005C51.1577 18.0132 52.1304 18.376 52.9092 19.0894L52.9507 19.1284C57.8154 23.8691 63.5078 26.269 70.8662 26.6797C74.3955 26.8765 77.2012 29.7959 77.2535 33.3247C77.2637 34.0484 77.2823 34.6983 77.3111 35.314L77.3125 35.3628C77.4551 42.8809 77.6319 52.2373 74.4971 60.7388Z" fill="#00AA63"/>
<path d="M66.0752 50C66.0752 58.7759 58.9497 65.9195 50.1812 65.9507H50.125C41.3306 65.9507 34.1743 58.795 34.1743 50C34.1743 41.2056 41.3306 34.0498 50.125 34.0498H50.1812C58.9497 34.0811 66.0752 41.2246 66.0752 50Z" fill="white"/>
<path d="M66.0752 50C66.0752 58.7759 58.9497 65.9195 50.1812 65.9507V34.0498C58.9497 34.0811 66.0752 41.2246 66.0752 50Z" fill="#E1EBF0"/>
<path d="M57.3645 47.7032L50.1809 54.8878L48.6287 56.4401C48.262 56.8068 47.781 56.9899 47.3005 56.9899C46.8196 56.9899 46.3391 56.8068 45.9719 56.4401L42.6345 53.1012C41.9011 52.3678 41.9011 51.1798 42.6345 50.4459C43.3669 49.7125 44.5564 49.7125 45.2898 50.4459L47.3005 52.4567L54.7092 45.048C55.4426 44.3141 56.6321 44.3141 57.3645 45.048C58.0979 45.7814 58.0979 46.9708 57.3645 47.7032Z" fill="#B4D2D7"/>
<path d="M57.3647 47.7033L50.1812 54.8878V49.5758L54.7095 45.048C55.4429 44.3141 56.6323 44.3141 57.3647 45.048C58.0981 45.7814 58.0981 46.9708 57.3647 47.7033Z" fill="#6FA5AA"/>
</g>
<defs>
<clipPath id="clip0">
<rect width="64" height="64" fill="white" transform="translate(18 18)"/>
</clipPath>
</defs>
</svg>
