<svg width="100" height="100" viewBox="0 0 100 100" fill="none" xmlns="http://www.w3.org/2000/svg">
<circle cx="50" cy="50" r="50" fill="#FCA62F"/>
<path d="M19.1828 47.1233L24.3806 47.7483L29.732 47.1233C30.3852 47.1233 30.9146 46.5938 30.9146 45.9408V43.5653C30.9146 42.9122 30.385 42.3828 29.732 42.3828H19.1829C18.5298 42.3828 18.0004 42.9123 18.0004 43.5653V45.9408C18.0003 46.5938 18.5297 47.1233 19.1828 47.1233Z" fill="#FFD496"/>
<path d="M19.1828 56.605L24.6825 57.23L29.732 56.605C30.3852 56.605 30.9146 56.0755 30.9146 55.4225V53.047C30.9146 52.3939 30.385 51.8645 29.732 51.8645L25.1868 51.2395L19.1829 51.8645C18.5298 51.8645 18.0004 52.394 18.0004 53.047V55.4225C18.0003 56.0756 18.5297 56.605 19.1828 56.605Z" fill="#FFD496"/>
<path d="M19.1828 66.0873L24.6222 66.7123L29.732 66.0873C30.3852 66.0873 30.9146 65.5578 30.9146 64.9048V62.5292C30.9146 61.8761 30.385 61.3467 29.732 61.3467L24.6825 60.7217L19.1828 61.3467C18.5297 61.3467 18.0003 61.8762 18.0003 62.5292V64.9047C18.0003 65.5578 18.5297 66.0873 19.1828 66.0873Z" fill="#FFD496"/>
<path d="M19.1824 75.5691L24.5009 76.1941L29.7316 75.5691C30.3847 75.5691 30.9141 75.0396 30.9141 74.3866V72.0111C30.9141 71.358 30.3846 70.8286 29.7316 70.8286L24.6217 70.2036L19.1823 70.8286C18.5292 70.8286 17.9998 71.3581 17.9998 72.0111V74.3866C17.9999 75.0397 18.5293 75.5691 19.1824 75.5691Z" fill="#FFD496"/>
<path d="M36.2112 70.8281L41.5347 71.4531L46.7604 70.8281C47.4135 70.8281 47.9429 70.2986 47.9429 69.6456V67.2701C47.9429 66.617 47.4134 66.0876 46.7604 66.0876L41.6555 65.4626L36.2111 66.0876C35.558 66.0876 35.0286 66.6171 35.0286 67.2701V69.6456C35.0287 70.2986 35.5581 70.8281 36.2112 70.8281Z" fill="#FFD496"/>
<path d="M36.2112 61.3462L41.5951 61.9712L46.7604 61.3462C47.4135 61.3462 47.9429 60.8167 47.9429 60.1637V57.7882C47.9429 57.1351 47.4134 56.6057 46.7604 56.6057L41.8367 55.9807L36.2112 56.6057C35.5581 56.6057 35.0287 57.1352 35.0287 57.7882V60.1637C35.0287 60.8167 35.5581 61.3462 36.2112 61.3462Z" fill="#FFD496"/>
<path d="M53.2399 56.6048L58.3873 57.2298L63.7892 56.6048C64.4423 56.6048 64.9717 56.0753 64.9717 55.4223V53.0468C64.9717 52.3936 64.4422 51.8643 63.7892 51.8643H53.2401C52.5869 51.8643 52.0576 52.3938 52.0576 53.0468V55.4223C52.0574 56.0753 52.5868 56.6048 53.2399 56.6048Z" fill="#FFD496"/>
<path d="M53.2401 66.0873L58.4478 66.7123L63.7892 66.0873C64.4423 66.0873 64.9717 65.5578 64.9717 64.9048V62.5292C64.9717 61.8761 64.4422 61.3467 63.7892 61.3467L58.6289 60.7217L53.2399 61.3467C52.5868 61.3467 52.0574 61.8762 52.0574 62.5292V64.9047C52.0576 65.5578 52.5869 66.0873 53.2401 66.0873Z" fill="#FFD496"/>
<path d="M53.2401 75.5691L58.5082 76.1941L63.7892 75.5691C64.4423 75.5691 64.9717 75.0396 64.9717 74.3866V72.0111C64.9717 71.358 64.4422 70.8286 63.7892 70.8286L58.5082 70.2036L53.2401 70.8286C52.5869 70.8286 52.0576 71.3581 52.0576 72.0111V74.3866C52.0576 75.0397 52.5869 75.5691 53.2401 75.5691Z" fill="#FFD496"/>
<path d="M70.2683 70.8281L75.7226 71.4531L80.8175 70.8281C81.4706 70.8281 82 70.2986 82 69.6456V67.2701C82 66.617 81.4705 66.0876 80.8175 66.0876L75.6019 65.4626L70.2684 66.0876C69.6153 66.0876 69.0859 66.6171 69.0859 67.2701V69.6456C69.0857 70.2986 69.6153 70.8281 70.2683 70.8281Z" fill="#FFD496"/>
<path d="M70.2683 80.3101H80.8175C81.4706 80.3101 82 79.7806 82 79.1276V76.7521C82 76.099 81.4705 75.5696 80.8175 75.5696L75.7831 74.9446L70.2684 75.5696C69.6153 75.5696 69.0859 76.0991 69.0859 76.7521V79.1276C69.0857 79.7807 69.6153 80.3101 70.2683 80.3101Z" fill="#FFD496"/>
<path d="M69.0854 76.7523V79.1281C69.0854 79.7808 69.6151 80.3106 70.2679 80.3106H73.9634C73.3106 80.3106 72.7809 79.7808 72.7809 79.1281V76.7523C72.7809 76.0996 73.3106 75.5698 73.9634 75.5698H70.268C69.6153 75.5697 69.0854 76.0996 69.0854 76.7523Z" fill="#FCC16D"/>
<path d="M70.2683 75.5691H80.8175C81.4706 75.5691 82 75.0396 82 74.3866V72.0111C82 71.358 81.4705 70.8286 80.8175 70.8286H70.2684C69.6153 70.8286 69.0859 71.3581 69.0859 72.0111V74.3866C69.0857 75.0397 69.6153 75.5691 70.2683 75.5691Z" fill="#FCA62F"/>
<path d="M69.0854 72.0111V74.3869C69.0854 75.0396 69.6151 75.5694 70.2679 75.5694H73.9634C73.3106 75.5694 72.7809 75.0396 72.7809 74.3869V72.0111C72.7809 71.3584 73.3106 70.8286 73.9634 70.8286H70.268C69.6153 70.8286 69.0854 71.3584 69.0854 72.0111Z" fill="#F98824"/>
<path d="M69.0854 67.2704V69.6461C69.0854 70.2989 69.6151 70.8286 70.2679 70.8286H73.9634C73.3106 70.8286 72.7809 70.2989 72.7809 69.6461V67.2704C72.7809 66.6176 73.3106 66.0879 73.9634 66.0879H70.268C69.6153 66.0879 69.0854 66.6176 69.0854 67.2704Z" fill="#FCC16D"/>
<path d="M70.2683 66.0872H80.8175C81.4706 66.0872 82 65.5577 82 64.9047V62.5292C82 61.8761 81.4705 61.3467 80.8175 61.3467H70.2684C69.6153 61.3467 69.0859 61.8762 69.0859 62.5292V64.9047C69.0857 65.5577 69.6153 66.0872 70.2683 66.0872Z" fill="#FCA62F"/>
<path d="M69.0854 62.5294V64.9052C69.0854 65.5579 69.6151 66.0877 70.2679 66.0877H73.9634C73.3106 66.0877 72.7809 65.5579 72.7809 64.9052V62.5294C72.7809 61.8767 73.3106 61.3469 73.9634 61.3469H70.268C69.6153 61.3469 69.0854 61.8767 69.0854 62.5294Z" fill="#F98824"/>
<path d="M53.2401 80.3103H63.7892C64.4423 80.3103 64.9717 79.7808 64.9717 79.1278V76.7523C64.9717 76.0992 64.4422 75.5698 63.7892 75.5698H53.2401C52.5869 75.5698 52.0576 76.0993 52.0576 76.7523V79.1278C52.0576 79.781 52.5869 80.3103 53.2401 80.3103Z" fill="#FCA62F"/>
<path d="M52.0575 76.7526V79.1283C52.0575 79.7811 52.5873 80.3108 53.24 80.3108H56.9355C56.2828 80.3108 55.753 79.7811 55.753 79.1283V76.7526C55.753 76.0998 56.2828 75.5701 56.9355 75.5701H53.2402C52.5873 75.5699 52.0575 76.0998 52.0575 76.7526Z" fill="#F98824"/>
<path d="M52.0575 72.0111V74.3869C52.0575 75.0396 52.5873 75.5694 53.24 75.5694H56.9355C56.2828 75.5694 55.753 75.0396 55.753 74.3869V72.0111C55.753 71.3584 56.2828 70.8286 56.9355 70.8286H53.2402C52.5873 70.8286 52.0575 71.3584 52.0575 72.0111Z" fill="#FCC16D"/>
<path d="M53.2401 70.8281H63.7892C64.4423 70.8281 64.9717 70.2986 64.9717 69.6456V67.2701C64.9717 66.617 64.4422 66.0876 63.7892 66.0876H53.2401C52.5869 66.0876 52.0576 66.6171 52.0576 67.2701V69.6456C52.0576 70.2986 52.5869 70.8281 53.2401 70.8281Z" fill="#FCA62F"/>
<path d="M52.0575 67.2704V69.6461C52.0575 70.2989 52.5873 70.8286 53.24 70.8286H56.9355C56.2828 70.8286 55.753 70.2989 55.753 69.6461V67.2704C55.753 66.6176 56.2828 66.0879 56.9355 66.0879H53.2402C52.5873 66.0879 52.0575 66.6176 52.0575 67.2704Z" fill="#F98824"/>
<path d="M36.2112 80.3098H46.7604C47.4135 80.3098 47.9429 79.7803 47.9429 79.1273V76.7518C47.9429 76.0987 47.4134 75.5693 46.7604 75.5693L41.3535 74.9443L36.2111 75.5693C35.558 75.5693 35.0286 76.0988 35.0286 76.7518V79.1273C35.0287 79.7805 35.5581 80.3098 36.2112 80.3098Z" fill="#FFD496"/>
<path d="M35.0284 76.7521V79.1278C35.0284 79.7806 35.5581 80.3103 36.2109 80.3103H39.9062C39.2535 80.3103 38.7237 79.7806 38.7237 79.1278V76.7521C38.7237 76.0993 39.2535 75.5696 39.9062 75.5696H36.2109C35.5581 75.5695 35.0284 76.0993 35.0284 76.7521Z" fill="#FCC16D"/>
<path d="M36.2112 75.5691H46.7604C47.4135 75.5691 47.9429 75.0396 47.9429 74.3866V72.0111C47.9429 71.358 47.4134 70.8286 46.7604 70.8286H36.2112C35.5581 70.8286 35.0287 71.3581 35.0287 72.0111V74.3866C35.0287 75.0397 35.5581 75.5691 36.2112 75.5691Z" fill="#FCA62F"/>
<path d="M35.0284 72.0111V74.3869C35.0284 75.0396 35.5581 75.5694 36.2109 75.5694H39.9062C39.2535 75.5694 38.7237 75.0396 38.7237 74.3869V72.0111C38.7237 71.3584 39.2535 70.8286 39.9062 70.8286H36.2109C35.5581 70.8286 35.0284 71.3584 35.0284 72.0111Z" fill="#F98824"/>
<path d="M35.0284 67.2701V69.6459C35.0284 70.2986 35.5581 70.8284 36.2109 70.8284H39.9062C39.2535 70.8284 38.7237 70.2986 38.7237 69.6459V67.2701C38.7237 66.6174 39.2535 66.0876 39.9062 66.0876H36.2109C35.5581 66.0876 35.0284 66.6174 35.0284 67.2701Z" fill="#FCC16D"/>
<path d="M19.1824 80.3103H29.7316C30.3847 80.3103 30.9141 79.7808 30.9141 79.1278V76.7523C30.9141 76.0992 30.3846 75.5698 29.7316 75.5698H19.1824C18.5293 75.5698 17.9999 76.0993 17.9999 76.7523V79.1278C17.9999 79.781 18.5293 80.3103 19.1824 80.3103Z" fill="#FCA62F"/>
<path d="M17.9996 76.7526V79.1283C17.9996 79.7811 18.5293 80.3108 19.1821 80.3108H22.8774C22.2247 80.3108 21.6949 79.7811 21.6949 79.1283V76.7526C21.6949 76.0998 22.2247 75.5701 22.8774 75.5701H19.1821C18.5293 75.5699 17.9996 76.0998 17.9996 76.7526Z" fill="#F98824"/>
<path d="M18.0001 72.0111V74.3869C18.0001 75.0396 18.5298 75.5694 19.1826 75.5694H22.8779C22.2252 75.5694 21.6954 75.0396 21.6954 74.3869V72.0111C21.6954 71.3584 22.2252 70.8286 22.8779 70.8286H19.1826C18.5298 70.8286 18.0001 71.3584 18.0001 72.0111Z" fill="#FCC16D"/>
<path d="M19.1824 70.8281H29.7316C30.3847 70.8281 30.9141 70.2986 30.9141 69.6456V67.2701C30.9141 66.617 30.3846 66.0876 29.7316 66.0876H19.1824C18.5293 66.0876 17.9999 66.6171 17.9999 67.2701V69.6456C17.9999 70.2986 18.5293 70.8281 19.1824 70.8281Z" fill="#FCA62F"/>
<path d="M17.9996 67.2704V69.6461C17.9996 70.2989 18.5293 70.8286 19.1821 70.8286H22.8774C22.2247 70.8286 21.6949 70.2989 21.6949 69.6461V67.2704C21.6949 66.6176 22.2247 66.0879 22.8774 66.0879H19.1821C18.5293 66.0879 17.9996 66.6176 17.9996 67.2704Z" fill="#F98824"/>
<path d="M52.0571 62.5292V64.9049C52.0571 65.5577 52.5868 66.0874 53.2396 66.0874H56.9351C56.2823 66.0874 55.7526 65.5577 55.7526 64.9049V62.5292C55.7526 61.8764 56.2823 61.3467 56.9351 61.3467H53.2397C52.5868 61.3467 52.0571 61.8764 52.0571 62.5292Z" fill="#FCC16D"/>
<path d="M53.2401 61.3456H63.7892C64.4423 61.3456 64.9717 60.8161 64.9717 60.1631V57.7875C64.9717 57.1344 64.4422 56.605 63.7892 56.605H53.2401C52.5869 56.605 52.0576 57.1345 52.0576 57.7875V60.163C52.0576 60.8161 52.5869 61.3456 53.2401 61.3456Z" fill="#FCA62F"/>
<path d="M52.0575 57.7877V60.1635C52.0575 60.8162 52.5873 61.346 53.24 61.346H56.9355C56.2828 61.346 55.753 60.8162 55.753 60.1635V57.7877C55.753 57.135 56.2828 56.6052 56.9355 56.6052H53.2402C52.5873 56.6052 52.0575 57.135 52.0575 57.7877Z" fill="#F98824"/>
<path d="M36.2112 66.0871H46.7604C47.4135 66.0871 47.9429 65.5576 47.9429 64.9046V62.5289C47.9429 61.8758 47.4134 61.3464 46.7604 61.3464H36.2112C35.5581 61.3464 35.0287 61.8759 35.0287 62.5289V64.9044C35.0287 65.5576 35.5581 66.0871 36.2112 66.0871Z" fill="#FCA62F"/>
<path d="M35.0284 62.5292V64.9049C35.0284 65.5577 35.5581 66.0874 36.2109 66.0874H39.9062C39.2535 66.0874 38.7237 65.5577 38.7237 64.9049V62.5292C38.7237 61.8764 39.2535 61.3467 39.9062 61.3467H36.2109C35.5581 61.3467 35.0284 61.8764 35.0284 62.5292Z" fill="#F98824"/>
<path d="M35.0284 57.7882V60.164C35.0284 60.8167 35.5581 61.3465 36.2109 61.3465H39.9062C39.2535 61.3465 38.7237 60.8167 38.7237 60.164V57.7882C38.7237 57.1355 39.2535 56.6057 39.9062 56.6057H36.2109C35.5581 56.6056 35.0284 57.1355 35.0284 57.7882Z" fill="#FCC16D"/>
<path d="M52.0571 53.0468V55.4225C52.0571 56.0753 52.5868 56.605 53.2396 56.605H56.9351C56.2823 56.605 55.7526 56.0753 55.7526 55.4225V53.0468C55.7526 52.394 56.2823 51.8643 56.9351 51.8643H53.2397C52.5868 51.8643 52.0571 52.394 52.0571 53.0468Z" fill="#FCC16D"/>
<path d="M36.2112 56.6048H46.7604C47.4135 56.6048 47.9429 56.0753 47.9429 55.4223V53.0468C47.9429 52.3936 47.4134 51.8643 46.7604 51.8643H36.2112C35.5581 51.8643 35.0287 52.3938 35.0287 53.0468V55.4223C35.0287 56.0754 35.5581 56.6048 36.2112 56.6048Z" fill="#FCA62F"/>
<path d="M35.0284 53.047V55.4228C35.0284 56.0755 35.5581 56.6053 36.2109 56.6053H39.9062C39.2535 56.6053 38.7237 56.0755 38.7237 55.4228V53.047C38.7237 52.3943 39.2535 51.8645 39.9062 51.8645H36.2109C35.5581 51.8644 35.0284 52.3943 35.0284 53.047Z" fill="#F98824"/>
<path d="M18.0001 62.5292V64.9049C18.0001 65.5577 18.5298 66.0874 19.1826 66.0874H22.8779C22.2252 66.0874 21.6954 65.5577 21.6954 64.9049V62.5292C21.6954 61.8764 22.2252 61.3467 22.8779 61.3467H19.1826C18.5298 61.3467 18.0001 61.8764 18.0001 62.5292Z" fill="#FCC16D"/>
<path d="M19.1824 61.346H29.7316C30.3847 61.346 30.9141 60.8165 30.9141 60.1635V57.788C30.9141 57.1348 30.3846 56.6055 29.7316 56.6055H19.1824C18.5293 56.6055 17.9999 57.135 17.9999 57.788V60.1635C17.9999 60.8165 18.5293 61.346 19.1824 61.346Z" fill="#FCA62F"/>
<path d="M17.9996 57.7882V60.164C17.9996 60.8167 18.5293 61.3465 19.1821 61.3465H22.8774C22.2247 61.3465 21.6949 60.8167 21.6949 60.164V57.7882C21.6949 57.1355 22.2247 56.6057 22.8774 56.6057H19.1821C18.5293 56.6056 17.9996 57.1355 17.9996 57.7882Z" fill="#F98824"/>
<path d="M17.9996 53.0472V55.423C17.9996 56.0757 18.5293 56.6055 19.1821 56.6055H22.8774C22.2247 56.6055 21.6949 56.0757 21.6949 55.423V53.0472C21.6949 52.3945 22.2247 51.8647 22.8774 51.8647H19.1821C18.5293 51.8646 17.9996 52.3944 17.9996 53.0472Z" fill="#FCC16D"/>
<path d="M19.1829 51.864H29.7321C30.3852 51.864 30.9146 51.3345 30.9146 50.6815V48.306C30.9146 47.6529 30.3851 47.1235 29.7321 47.1235H19.1829C18.5298 47.1235 18.0004 47.653 18.0004 48.306V50.6815C18.0004 51.3345 18.5298 51.864 19.1829 51.864Z" fill="#FCA62F"/>
<path d="M18.0001 48.3063V50.682C18.0001 51.3348 18.5298 51.8645 19.1826 51.8645H22.8779C22.2252 51.8645 21.6954 51.3348 21.6954 50.682V48.3063C21.6954 47.6535 22.2252 47.1238 22.8779 47.1238H19.1826C18.5298 47.1238 18.0001 47.6535 18.0001 48.3063Z" fill="#F98824"/>
<path d="M18.0001 43.5653V45.9411C18.0001 46.5938 18.5298 47.1236 19.1826 47.1236H22.8779C22.2252 47.1236 21.6954 46.5938 21.6954 45.9411V43.5653C21.6954 42.9126 22.2252 42.3828 22.8779 42.3828H19.1826C18.5298 42.3828 18.0001 42.9126 18.0001 43.5653Z" fill="#FCC16D"/>
<path d="M76.6739 53.7271C77.2873 53.7271 77.8993 53.4847 78.3543 53.0041C79.2328 52.0762 79.1927 50.612 78.2648 49.7336L66.5243 38.6184C66.0947 38.2116 65.5254 37.9849 64.9338 37.9849H39.2565L20.9493 19.6776C20.0458 18.7741 18.581 18.7741 17.6775 19.6776C16.774 20.5811 16.774 22.0459 17.6775 22.9494L36.6624 41.9342C37.0963 42.3681 37.6848 42.6119 38.2983 42.6119H64.0124L75.0838 53.0936C75.531 53.5171 76.103 53.7271 76.6739 53.7271Z" fill="#20B69F"/>
<path d="M64.4712 44.8625C62.021 44.8625 60.0347 42.8762 60.0347 40.426C60.0347 37.9758 62.021 35.9895 64.4712 35.9895C66.9214 35.9895 68.9077 37.9758 68.9077 40.426C68.9077 42.8762 66.9214 44.8625 64.4712 44.8625Z" fill="#23F1A8"/>
<path d="M60.0348 40.4255C60.0348 42.8765 62.0218 44.8621 64.4714 44.8621C65.3664 44.8621 66.2005 44.5964 66.8985 44.139C64.9579 44.0147 63.4204 42.3992 63.4204 40.4255C63.4204 38.4517 64.9579 36.8362 66.8999 36.7134C66.2019 36.256 65.3678 35.9902 64.4714 35.9902C62.0218 35.9902 60.0348 37.9759 60.0348 40.4255Z" fill="#26D192"/>
<path d="M38.1626 44.2187C35.7124 44.2187 33.7261 42.2324 33.7261 39.7822C33.7261 37.332 35.7124 35.3457 38.1626 35.3457C40.6128 35.3457 42.5991 37.332 42.5991 39.7822C42.5991 42.2324 40.6128 44.2187 38.1626 44.2187Z" fill="#23F1A8"/>
<path d="M33.7257 39.7814C33.7257 42.2324 35.7127 44.2181 38.1623 44.2181C39.0573 44.2181 39.8914 43.9523 40.5894 43.4949C38.6488 43.3707 37.1113 41.7552 37.1113 39.7814C37.1113 37.8077 38.6488 36.1922 40.5908 36.0693C39.8928 35.6119 39.0587 35.3462 38.1623 35.3462C35.7127 35.3462 33.7257 37.3318 33.7257 39.7814Z" fill="#26D192"/>
<path d="M80.2223 51.9704L75.9205 47.6686C75.7394 48.1829 75.6402 48.7368 75.6402 49.3131V50.6404H74.313C73.726 50.6404 73.1629 50.7421 72.6406 50.9313L76.9503 55.241C77.8531 56.1453 79.3179 56.1453 80.2221 55.241C81.1251 54.338 81.1251 52.8733 80.2223 51.9704Z" fill="#17998C"/>
<path d="M80.5137 47.0015C79.2601 47.0461 78.2846 48.1145 78.2846 49.3689V52.6407C78.2846 52.9964 77.9964 53.2846 77.6407 53.2846H74.3689C73.1144 53.2846 72.046 54.2601 72.0015 55.5137C71.9547 56.8299 73.0077 57.9116 74.3135 57.9116H80.5981C81.8759 57.9116 82.9116 56.8759 82.9116 55.5981V49.3135C82.9116 48.0077 81.83 46.9546 80.5137 47.0015Z" fill="#23F1A8"/>
</svg>
